<?xml version="1.0" encoding="utf-8"?>
<!-- Generator: Adobe Illustrator 14.0.0, SVG Export Plug-In . SVG Version: 6.00 Build 43363)  -->
<!DOCTYPE svg PUBLIC "-//W3C//DTD SVG 1.1//EN" "httpdisabled://www.w3.org/Graphics/SVG/1.1/DTD/svg11.dtd">
<svg version="1.1" id="Layer_1" xmlns="httpdisabled://www.w3.org/2000/svg" xmlns:xlink="httpdisabled://www.w3.org/1999/xlink" x="0px" y="0px"
	 width="160px" height="270px" viewBox="0 0 160 270" enable-background="new 0 0 160 270" xml:space="preserve">
<g>
	<path fill-opacity="0.5" d="M55.557,253.168c0,1.697-0.509,2.975-1.526,3.831c-0.942,0.792-2.282,1.188-4.018,1.188
		c-0.859,0-1.596-0.037-2.212-0.112v-9.269c0.803-0.134,1.671-0.195,2.604-0.195c1.652,0,2.898,0.355,3.738,1.076
		C55.085,250.498,55.557,251.658,55.557,253.168z M53.96,253.211c0-1.1-0.292-1.941-0.875-2.529
		c-0.583-0.587-1.435-0.881-2.555-0.881c-0.476,0-0.882,0.033-1.218,0.098v7.043c0.187,0.027,0.527,0.043,1.022,0.043
		c1.157,0,2.051-0.318,2.681-0.965C53.646,255.377,53.96,254.439,53.96,253.211z"/>
	<path fill-opacity="0.5" d="M63.312,254.659c0,1.046-0.299,1.903-0.896,2.575c-0.625,0.688-1.456,1.037-2.492,1.037
		c-0.999,0-1.794-0.332-2.387-0.994c-0.593-0.662-0.889-1.498-0.889-2.506c0-1.059,0.306-1.918,0.917-2.59
		c0.611-0.676,1.435-1.012,2.471-1.012c0.999,0,1.801,0.33,2.408,0.993C63.022,252.811,63.312,253.643,63.312,254.659z
		 M61.744,254.693c0-0.623-0.136-1.158-0.406-1.604c-0.317-0.54-0.77-0.81-1.358-0.81c-0.607,0-1.069,0.27-1.386,0.81
		c-0.271,0.446-0.406,0.991-0.406,1.634c0,0.623,0.135,1.158,0.406,1.605c0.326,0.539,0.784,0.809,1.372,0.809
		c0.579,0,1.031-0.273,1.358-0.822C61.604,255.857,61.744,255.318,61.744,254.693z"/>
	<path fill-opacity="0.5" d="M73.771,251.312l-2.128,6.805h-1.386l-0.882-2.954c-0.224-0.737-0.406-1.47-0.546-2.198h-0.028
		c-0.131,0.747-0.313,1.48-0.546,2.198l-0.938,2.954h-1.4l-2.002-6.805h1.554l0.771,3.23c0.187,0.77,0.34,1.494,0.462,2.188h0.028
		c0.112-0.568,0.299-1.293,0.56-2.17l0.966-3.248h1.232l0.924,3.179c0.224,0.774,0.406,1.521,0.546,2.239H71
		c0.103-0.699,0.257-1.445,0.462-2.239l0.826-3.179H73.771z"/>
	<path fill-opacity="0.5" d="M80.84,258.117h-1.512v-3.906c0-1.203-0.457-1.807-1.372-1.807c-0.448,0-0.812,0.166-1.092,0.498
		c-0.28,0.33-0.42,0.721-0.42,1.168v4.047h-1.512v-4.857c0-0.598-0.019-1.246-0.056-1.947h1.33l0.07,1.055h0.042
		c0.177-0.326,0.438-0.602,0.784-0.812c0.41-0.253,0.868-0.378,1.372-0.378c0.635,0,1.162,0.205,1.582,0.615
		c0.523,0.504,0.784,1.256,0.784,2.254V258.117z"/>
	<path fill-opacity="0.5" d="M84.214,258.117h-1.512v-9.926h1.512V258.117z"/>
	<path fill-opacity="0.5" d="M92.334,254.659c0,1.046-0.299,1.903-0.896,2.575c-0.625,0.688-1.455,1.037-2.492,1.037
		c-0.995,0-1.795-0.332-2.387-0.994c-0.594-0.662-0.89-1.498-0.89-2.506c0-1.059,0.306-1.918,0.917-2.59
		c0.611-0.676,1.436-1.012,2.471-1.012c1,0,1.803,0.33,2.408,0.993C92.045,252.811,92.334,253.643,92.334,254.659z M90.766,254.693
		c0-0.623-0.135-1.158-0.404-1.604c-0.314-0.54-0.771-0.81-1.355-0.81c-0.604,0-1.064,0.27-1.386,0.81
		c-0.271,0.446-0.406,0.991-0.406,1.634c0,0.623,0.138,1.158,0.406,1.605c0.323,0.539,0.78,0.809,1.372,0.809
		c0.574,0,1.027-0.273,1.354-0.822C90.626,255.857,90.766,255.318,90.766,254.693z"/>
	<path fill-opacity="0.5" d="M98.887,258.117h-1.357l-0.109-0.784h-0.042c-0.467,0.626-1.129,0.938-1.985,0.938
		c-0.646,0-1.16-0.205-1.557-0.617c-0.354-0.372-0.531-0.834-0.531-1.385c0-0.832,0.35-1.465,1.045-1.904
		c0.692-0.438,1.674-0.653,2.934-0.646v-0.125c0-0.896-0.471-1.346-1.413-1.346c-0.673,0-1.265,0.168-1.778,0.505l-0.309-0.994
		c0.636-0.393,1.414-0.588,2.339-0.588c1.782,0,2.674,0.938,2.674,2.812v2.509C98.788,257.175,98.82,257.716,98.887,258.117z
		 M97.318,255.779v-1.051c-1.672-0.027-2.506,0.43-2.506,1.373c0,0.354,0.097,0.621,0.291,0.797
		c0.192,0.178,0.438,0.267,0.735,0.267c0.334,0,0.646-0.104,0.929-0.315c0.28-0.209,0.457-0.478,0.521-0.805
		C97.309,255.971,97.318,255.882,97.318,255.779z"/>
	<path fill-opacity="0.5" d="M106.697,258.117h-1.344l-0.07-1.092h-0.042c-0.429,0.83-1.157,1.246-2.185,1.246
		c-0.82,0-1.502-0.322-2.043-0.967c-0.541-0.646-0.812-1.479-0.812-2.51c0-1.104,0.296-1.988,0.888-2.674
		c0.572-0.637,1.276-0.951,2.111-0.951c0.92,0,1.563,0.311,1.93,0.928v-3.906h1.513v8.092
		C106.643,256.945,106.66,257.557,106.697,258.117z M105.13,255.247v-1.134c0-0.196-0.015-0.354-0.043-0.479
		c-0.084-0.36-0.267-0.669-0.548-0.916c-0.281-0.245-0.618-0.368-1.012-0.368c-0.562,0-1.006,0.225-1.329,0.672
		c-0.323,0.444-0.484,1.021-0.484,1.723c0,0.672,0.154,1.218,0.464,1.638c0.328,0.448,0.771,0.673,1.321,0.673
		c0.496,0,0.896-0.187,1.194-0.561C104.984,256.148,105.13,255.732,105.13,255.247z"/>
	<path fill-opacity="0.5" d="M112.689,256.157c0,0.635-0.232,1.144-0.699,1.526c-0.467,0.381-1.111,0.57-1.934,0.57
		c-0.773,0-1.436-0.15-1.977-0.463l0.318-1.119c0.522,0.316,1.078,0.479,1.666,0.479c0.775,0,1.162-0.283,1.162-0.854
		c0-0.252-0.084-0.459-0.252-0.623c-0.168-0.161-0.467-0.323-0.896-0.481c-1.213-0.445-1.819-1.103-1.819-1.961
		c0-0.588,0.225-1.075,0.672-1.469s1.041-0.589,1.777-0.589c0.672,0,1.246,0.136,1.723,0.405l-0.32,1.078
		c-0.438-0.262-0.899-0.393-1.387-0.393c-0.314,0-0.562,0.071-0.742,0.225c-0.178,0.146-0.268,0.341-0.268,0.572
		s0.094,0.426,0.28,0.572c0.159,0.143,0.467,0.297,0.924,0.465C112.104,254.547,112.689,255.232,112.689,256.157z"/>
</g>
<g>
	<path fill-opacity="0.17" d="M55.557,255.168c0,1.697-0.509,2.975-1.526,3.831c-0.942,0.792-2.282,1.188-4.018,1.188
		c-0.859,0-1.596-0.037-2.212-0.112v-9.269c0.803-0.134,1.671-0.195,2.604-0.195c1.652,0,2.898,0.355,3.738,1.076
		C55.085,252.498,55.557,253.658,55.557,255.168z M53.96,255.211c0-1.1-0.292-1.941-0.875-2.529
		c-0.583-0.587-1.435-0.881-2.555-0.881c-0.476,0-0.882,0.033-1.218,0.098v7.043c0.187,0.027,0.527,0.043,1.022,0.043
		c1.157,0,2.051-0.318,2.681-0.965C53.646,257.377,53.96,256.439,53.96,255.211z"/>
	<path fill-opacity="0.17" d="M63.312,256.659c0,1.046-0.299,1.903-0.896,2.575c-0.625,0.688-1.456,1.037-2.492,1.037
		c-0.999,0-1.794-0.332-2.387-0.994c-0.593-0.662-0.889-1.498-0.889-2.506c0-1.059,0.306-1.918,0.917-2.59
		c0.611-0.676,1.435-1.012,2.471-1.012c0.999,0,1.801,0.33,2.408,0.993C63.022,254.811,63.312,255.643,63.312,256.659z
		 M61.744,256.693c0-0.623-0.136-1.158-0.406-1.604c-0.317-0.54-0.77-0.81-1.358-0.81c-0.607,0-1.069,0.27-1.386,0.81
		c-0.271,0.446-0.406,0.991-0.406,1.634c0,0.623,0.135,1.158,0.406,1.605c0.326,0.539,0.784,0.809,1.372,0.809
		c0.579,0,1.031-0.273,1.358-0.822C61.604,257.857,61.744,257.318,61.744,256.693z"/>
	<path fill-opacity="0.17" d="M73.771,253.312l-2.128,6.805h-1.386l-0.882-2.954c-0.224-0.737-0.406-1.47-0.546-2.198h-0.028
		c-0.131,0.747-0.313,1.48-0.546,2.198l-0.938,2.954h-1.4l-2.002-6.805h1.554l0.771,3.23c0.187,0.77,0.34,1.494,0.462,2.188h0.028
		c0.112-0.568,0.299-1.293,0.56-2.17l0.966-3.248h1.232l0.924,3.179c0.224,0.774,0.406,1.521,0.546,2.239H71
		c0.103-0.699,0.257-1.445,0.462-2.239l0.826-3.179H73.771z"/>
	<path fill-opacity="0.17" d="M80.84,260.117h-1.512v-3.906c0-1.203-0.457-1.807-1.372-1.807c-0.448,0-0.812,0.166-1.092,0.498
		c-0.28,0.33-0.42,0.721-0.42,1.168v4.047h-1.512v-4.857c0-0.598-0.019-1.246-0.056-1.947h1.33l0.07,1.055h0.042
		c0.177-0.326,0.438-0.602,0.784-0.812c0.41-0.253,0.868-0.378,1.372-0.378c0.635,0,1.162,0.205,1.582,0.615
		c0.523,0.504,0.784,1.256,0.784,2.254V260.117z"/>
	<path fill-opacity="0.17" d="M84.214,260.117h-1.512v-9.926h1.512V260.117z"/>
	<path fill-opacity="0.17" d="M92.334,256.659c0,1.046-0.299,1.903-0.896,2.575c-0.625,0.688-1.455,1.037-2.492,1.037
		c-0.995,0-1.795-0.332-2.387-0.994c-0.594-0.662-0.89-1.498-0.89-2.506c0-1.059,0.306-1.918,0.917-2.59
		c0.611-0.676,1.436-1.012,2.471-1.012c1,0,1.803,0.33,2.408,0.993C92.045,254.811,92.334,255.643,92.334,256.659z M90.766,256.693
		c0-0.623-0.135-1.158-0.404-1.604c-0.314-0.54-0.771-0.81-1.355-0.81c-0.604,0-1.064,0.27-1.386,0.81
		c-0.271,0.446-0.406,0.991-0.406,1.634c0,0.623,0.138,1.158,0.406,1.605c0.323,0.539,0.78,0.809,1.372,0.809
		c0.574,0,1.027-0.273,1.354-0.822C90.626,257.857,90.766,257.318,90.766,256.693z"/>
	<path fill-opacity="0.17" d="M98.887,260.117h-1.357l-0.109-0.784h-0.042c-0.467,0.626-1.129,0.938-1.985,0.938
		c-0.646,0-1.16-0.205-1.557-0.617c-0.354-0.372-0.531-0.834-0.531-1.385c0-0.832,0.35-1.465,1.045-1.904
		c0.692-0.438,1.674-0.653,2.934-0.646v-0.125c0-0.896-0.471-1.346-1.413-1.346c-0.673,0-1.265,0.168-1.778,0.505l-0.309-0.994
		c0.636-0.393,1.414-0.588,2.339-0.588c1.782,0,2.674,0.938,2.674,2.812v2.509C98.788,259.175,98.82,259.716,98.887,260.117z
		 M97.318,257.779v-1.051c-1.672-0.027-2.506,0.43-2.506,1.373c0,0.354,0.097,0.621,0.291,0.797
		c0.192,0.178,0.438,0.267,0.735,0.267c0.334,0,0.646-0.104,0.929-0.315c0.28-0.209,0.457-0.478,0.521-0.805
		C97.309,257.971,97.318,257.882,97.318,257.779z"/>
	<path fill-opacity="0.17" d="M106.697,260.117h-1.344l-0.07-1.092h-0.042c-0.429,0.83-1.157,1.246-2.185,1.246
		c-0.82,0-1.502-0.322-2.043-0.967c-0.541-0.646-0.812-1.479-0.812-2.51c0-1.104,0.296-1.988,0.888-2.674
		c0.572-0.637,1.276-0.951,2.111-0.951c0.92,0,1.563,0.311,1.93,0.928v-3.906h1.513v8.092
		C106.643,258.945,106.66,259.557,106.697,260.117z M105.13,257.247v-1.134c0-0.196-0.015-0.354-0.043-0.479
		c-0.084-0.36-0.267-0.669-0.548-0.916c-0.281-0.245-0.618-0.368-1.012-0.368c-0.562,0-1.006,0.225-1.329,0.672
		c-0.323,0.444-0.484,1.021-0.484,1.723c0,0.672,0.154,1.218,0.464,1.638c0.328,0.448,0.771,0.673,1.321,0.673
		c0.496,0,0.896-0.187,1.194-0.561C104.984,258.148,105.13,257.732,105.13,257.247z"/>
	<path fill-opacity="0.17" d="M112.689,258.157c0,0.635-0.232,1.144-0.699,1.526c-0.467,0.381-1.111,0.57-1.934,0.57
		c-0.773,0-1.436-0.15-1.977-0.463l0.318-1.119c0.522,0.316,1.078,0.479,1.666,0.479c0.775,0,1.162-0.283,1.162-0.854
		c0-0.252-0.084-0.459-0.252-0.623c-0.168-0.161-0.467-0.323-0.896-0.481c-1.213-0.445-1.819-1.103-1.819-1.961
		c0-0.588,0.225-1.074,0.672-1.469c0.447-0.394,1.041-0.589,1.777-0.589c0.672,0,1.246,0.136,1.723,0.405l-0.32,1.078
		c-0.438-0.262-0.899-0.393-1.387-0.393c-0.314,0-0.562,0.071-0.742,0.225c-0.178,0.148-0.268,0.341-0.268,0.572
		s0.094,0.426,0.28,0.572c0.159,0.143,0.467,0.297,0.924,0.465C112.104,256.547,112.689,257.232,112.689,258.157z"/>
</g>
<g>
	<path fill="#FFFFFF" d="M55.557,254.168c0,1.697-0.509,2.975-1.526,3.831c-0.942,0.792-2.282,1.188-4.018,1.188
		c-0.859,0-1.596-0.037-2.212-0.112v-9.269c0.803-0.134,1.671-0.195,2.604-0.195c1.652,0,2.898,0.355,3.738,1.076
		C55.085,251.498,55.557,252.658,55.557,254.168z M53.96,254.211c0-1.1-0.292-1.941-0.875-2.529
		c-0.583-0.587-1.435-0.881-2.555-0.881c-0.476,0-0.882,0.033-1.218,0.098v7.043c0.187,0.027,0.527,0.043,1.022,0.043
		c1.157,0,2.051-0.318,2.681-0.965C53.646,256.377,53.96,255.439,53.96,254.211z"/>
	<path fill="#FFFFFF" d="M63.312,255.659c0,1.046-0.299,1.903-0.896,2.575c-0.625,0.688-1.456,1.037-2.492,1.037
		c-0.999,0-1.794-0.332-2.387-0.994c-0.593-0.662-0.889-1.498-0.889-2.506c0-1.059,0.306-1.918,0.917-2.59
		c0.611-0.676,1.435-1.012,2.471-1.012c0.999,0,1.801,0.33,2.408,0.993C63.023,253.811,63.312,254.643,63.312,255.659z
		 M61.745,255.693c0-0.623-0.136-1.158-0.406-1.604c-0.317-0.54-0.77-0.81-1.358-0.81c-0.607,0-1.069,0.27-1.386,0.81
		c-0.271,0.446-0.406,0.991-0.406,1.634c0,0.623,0.135,1.158,0.406,1.605c0.326,0.539,0.784,0.809,1.372,0.809
		c0.579,0,1.031-0.273,1.358-0.822C61.604,256.857,61.745,256.318,61.745,255.693z"/>
	<path fill="#FFFFFF" d="M73.771,252.312l-2.128,6.805h-1.386l-0.882-2.954c-0.224-0.737-0.406-1.47-0.546-2.198h-0.028
		c-0.131,0.747-0.313,1.48-0.546,2.198l-0.938,2.954h-1.4l-2.002-6.805h1.554l0.771,3.23c0.187,0.77,0.34,1.494,0.462,2.188h0.028
		c0.112-0.568,0.299-1.293,0.56-2.17l0.966-3.248h1.232l0.924,3.179c0.224,0.774,0.406,1.521,0.546,2.239H71
		c0.103-0.699,0.257-1.445,0.462-2.239l0.826-3.179H73.771z"/>
	<path fill="#FFFFFF" d="M80.841,259.117h-1.512v-3.906c0-1.203-0.457-1.807-1.372-1.807c-0.448,0-0.812,0.166-1.092,0.498
		c-0.28,0.33-0.42,0.721-0.42,1.168v4.047h-1.512v-4.857c0-0.598-0.019-1.246-0.056-1.947h1.33l0.07,1.055h0.042
		c0.177-0.326,0.438-0.602,0.784-0.812c0.41-0.253,0.868-0.378,1.372-0.378c0.635,0,1.162,0.205,1.582,0.615
		c0.523,0.504,0.784,1.256,0.784,2.254V259.117z"/>
	<path fill="#FFFFFF" d="M84.215,259.117h-1.512v-9.926h1.512V259.117z"/>
	<path fill="#FFFFFF" d="M92.335,255.659c0,1.046-0.299,1.903-0.896,2.575c-0.627,0.688-1.457,1.037-2.492,1.037
		c-0.999,0-1.795-0.332-2.389-0.994c-0.596-0.662-0.892-1.498-0.892-2.506c0-1.059,0.31-1.918,0.917-2.59
		c0.609-0.676,1.438-1.012,2.475-1.012c0.998,0,1.801,0.33,2.404,0.993C92.046,253.811,92.335,254.643,92.335,255.659z
		 M90.768,255.693c0-0.623-0.136-1.158-0.406-1.604c-0.313-0.54-0.771-0.81-1.354-0.81c-0.604,0-1.065,0.27-1.386,0.81
		c-0.271,0.446-0.406,0.991-0.406,1.634c0,0.623,0.139,1.158,0.406,1.605c0.322,0.539,0.781,0.809,1.372,0.809
		c0.575,0,1.028-0.273,1.354-0.822C90.627,256.857,90.768,256.318,90.768,255.693z"/>
	<path fill="#FFFFFF" d="M98.887,259.117h-1.357l-0.108-0.784h-0.042c-0.467,0.626-1.129,0.938-1.984,0.938
		c-0.646,0-1.162-0.205-1.558-0.617c-0.354-0.372-0.53-0.834-0.53-1.385c0-0.832,0.35-1.465,1.045-1.904
		c0.691-0.438,1.674-0.653,2.934-0.646v-0.125c0-0.896-0.473-1.346-1.414-1.346c-0.672,0-1.266,0.168-1.778,0.505l-0.308-0.994
		c0.635-0.393,1.414-0.588,2.338-0.588c1.781,0,2.674,0.938,2.674,2.812v2.509C98.789,258.175,98.822,258.716,98.887,259.117z
		 M97.318,256.779v-1.051c-1.67-0.027-2.506,0.43-2.506,1.373c0,0.354,0.098,0.621,0.293,0.797c0.191,0.178,0.438,0.267,0.734,0.267
		c0.334,0,0.646-0.104,0.93-0.315c0.279-0.209,0.457-0.478,0.521-0.805C97.311,256.971,97.318,256.882,97.318,256.779z"/>
	<path fill="#FFFFFF" d="M106.699,259.117h-1.344l-0.07-1.092h-0.042c-0.429,0.83-1.157,1.246-2.185,1.246
		c-0.82,0-1.502-0.322-2.043-0.967c-0.541-0.646-0.812-1.479-0.812-2.51c0-1.104,0.296-1.988,0.888-2.674
		c0.572-0.637,1.276-0.951,2.111-0.951c0.92,0,1.563,0.311,1.93,0.928v-3.906h1.513v8.092
		C106.645,257.945,106.662,258.557,106.699,259.117z M105.132,256.247v-1.134c0-0.196-0.015-0.354-0.043-0.479
		c-0.084-0.36-0.267-0.669-0.548-0.913c-0.281-0.248-0.618-0.371-1.012-0.371c-0.562,0-1.006,0.225-1.329,0.672
		c-0.323,0.444-0.484,1.021-0.484,1.723c0,0.672,0.154,1.218,0.464,1.638c0.328,0.448,0.771,0.673,1.321,0.673
		c0.496,0,0.896-0.187,1.194-0.561C104.986,257.148,105.132,256.732,105.132,256.247z"/>
	<path fill="#FFFFFF" d="M112.691,257.157c0,0.635-0.233,1.144-0.7,1.526c-0.468,0.381-1.111,0.57-1.933,0.57
		c-0.774,0-1.437-0.15-1.978-0.463l0.319-1.119c0.521,0.316,1.078,0.479,1.666,0.479c0.773,0,1.162-0.283,1.162-0.854
		c0-0.252-0.084-0.459-0.252-0.623c-0.168-0.161-0.467-0.323-0.896-0.481c-1.213-0.445-1.819-1.103-1.819-1.961
		c0-0.588,0.228-1.074,0.674-1.469c0.445-0.394,1.039-0.589,1.775-0.589c0.674,0,1.246,0.136,1.725,0.405l-0.32,1.078
		c-0.438-0.262-0.901-0.393-1.389-0.393c-0.314,0-0.562,0.071-0.74,0.225c-0.18,0.148-0.268,0.341-0.268,0.572
		s0.094,0.426,0.278,0.572c0.159,0.143,0.467,0.297,0.924,0.465C112.104,255.547,112.691,256.232,112.691,257.157z"/>
</g>
<g>
	<path fill-opacity="0.5" d="M62.382,225.418c0,0.803-0.279,1.455-0.838,1.959c-0.614,0.551-1.471,0.826-2.57,0.826
		c-1.015,0-1.83-0.195-2.444-0.588l0.35-1.26c0.663,0.393,1.391,0.588,2.184,0.588c0.569,0,1.012-0.129,1.33-0.385
		c0.318-0.261,0.476-0.604,0.476-1.029c0-0.383-0.131-0.705-0.392-0.967c-0.261-0.264-0.695-0.504-1.302-0.729
		c-1.652-0.617-2.478-1.521-2.478-2.703c0-0.771,0.292-1.405,0.875-1.901c0.583-0.494,1.355-0.742,2.317-0.742
		c0.859,0,1.573,0.147,2.142,0.449l-0.379,1.229c-0.534-0.289-1.138-0.437-1.812-0.437c-0.534,0-0.951,0.131-1.251,0.394
		c-0.253,0.231-0.379,0.521-0.379,0.854c0,0.373,0.145,0.682,0.434,0.924c0.252,0.225,0.709,0.468,1.372,0.729
		c0.812,0.328,1.409,0.71,1.792,1.146C62.19,224.219,62.382,224.764,62.382,225.418z"/>
	<path fill-opacity="0.5" d="M69.802,228.062h-1.33l-0.084-1.035H68.36c-0.476,0.793-1.195,1.188-2.156,1.188
		c-0.672,0-1.208-0.209-1.61-0.629c-0.476-0.514-0.714-1.289-0.714-2.322v-4.006h1.512v3.752c0,1.309,0.448,1.961,1.344,1.961
		c0.672,0,1.139-0.326,1.4-0.979c0.065-0.169,0.098-0.359,0.098-0.574v-4.158h1.512v4.846
		C69.746,226.748,69.764,227.4,69.802,228.062z"/>
	<path fill-opacity="0.5" d="M78.146,224.578c0,1.156-0.315,2.07-0.943,2.742c-0.563,0.599-1.263,0.896-2.098,0.896
		c-0.901,0-1.548-0.319-1.943-0.965v3.567H71.65v-7.323c0-0.728-0.019-1.474-0.056-2.236h1.33l0.084,1.078h0.028
		c0.504-0.812,1.27-1.219,2.296-1.219c0.803,0,1.472,0.317,2.009,0.95C77.877,222.706,78.146,223.541,78.146,224.578z
		 M76.605,224.633c0-0.662-0.149-1.208-0.448-1.637c-0.327-0.449-0.765-0.673-1.316-0.673c-0.374,0-0.712,0.124-1.015,0.37
		c-0.303,0.248-0.502,0.572-0.595,0.975c-0.047,0.188-0.07,0.34-0.07,0.461v1.135c0,0.494,0.152,0.912,0.455,1.254
		c0.303,0.34,0.698,0.51,1.183,0.51c0.569,0,1.013-0.219,1.33-0.654S76.605,225.352,76.605,224.633z"/>
	<path fill-opacity="0.5" d="M86.041,224.578c0,1.156-0.314,2.07-0.943,2.742c-0.562,0.599-1.262,0.896-2.098,0.896
		c-0.9,0-1.549-0.319-1.943-0.965v3.567h-1.511v-7.323c0-0.728-0.019-1.474-0.056-2.236h1.328l0.084,1.078h0.029
		c0.504-0.812,1.271-1.219,2.295-1.219c0.803,0,1.474,0.317,2.01,0.95C85.773,222.706,86.041,223.541,86.041,224.578z
		 M84.502,224.633c0-0.662-0.15-1.208-0.449-1.637c-0.326-0.449-0.766-0.673-1.316-0.673c-0.369,0-0.711,0.124-1.014,0.37
		c-0.305,0.248-0.502,0.572-0.596,0.975c-0.047,0.188-0.07,0.34-0.07,0.461v1.135c0,0.494,0.152,0.912,0.455,1.254
		c0.305,0.34,0.697,0.51,1.184,0.51c0.568,0,1.016-0.219,1.33-0.654C84.342,225.932,84.502,225.352,84.502,224.633z"/>
	<path fill-opacity="0.5" d="M93.727,224.605c0,1.045-0.299,1.9-0.896,2.576c-0.626,0.688-1.456,1.031-2.492,1.031
		c-0.999,0-1.795-0.33-2.388-0.99c-0.594-0.662-0.889-1.498-0.889-2.51c0-1.054,0.306-1.918,0.916-2.59
		c0.608-0.672,1.437-1.008,2.472-1.008c0.999,0,1.802,0.332,2.407,0.99C93.438,222.758,93.727,223.588,93.727,224.605z
		 M92.158,224.641c0-0.623-0.135-1.158-0.405-1.604c-0.317-0.539-0.771-0.811-1.358-0.811c-0.604,0-1.064,0.271-1.386,0.811
		c-0.271,0.445-0.405,0.99-0.405,1.633c0,0.624,0.136,1.159,0.405,1.604c0.326,0.541,0.784,0.812,1.372,0.812
		c0.578,0,1.031-0.273,1.357-0.824C92.02,225.805,92.158,225.264,92.158,224.641z"/>
	<path fill-opacity="0.5" d="M98.768,222.59c-0.146-0.027-0.309-0.043-0.477-0.043c-0.532,0-0.943,0.201-1.232,0.604
		c-0.252,0.354-0.377,0.806-0.377,1.348v3.566h-1.513v-4.662c0-0.781-0.015-1.498-0.042-2.143h1.314l0.058,1.303h0.042
		c0.158-0.445,0.41-0.809,0.756-1.078c0.336-0.24,0.7-0.361,1.092-0.361c0.141,0,0.271,0.01,0.379,0.025V222.59z"/>
	<path fill-opacity="0.5" d="M103.682,222.395h-1.666v3.307c0,0.84,0.295,1.26,0.883,1.26c0.271,0,0.494-0.021,0.672-0.066
		l0.041,1.146c-0.299,0.11-0.688,0.168-1.176,0.168c-0.598,0-1.062-0.185-1.396-0.545c-0.336-0.365-0.504-0.979-0.504-1.835v-3.432
		H99.54v-1.136h0.994v-1.245l1.481-0.447v1.692h1.666V222.395L103.682,222.395z"/>
</g>
<g>
	<path fill-opacity="0.17" d="M62.382,227.418c0,0.803-0.279,1.455-0.838,1.959c-0.614,0.551-1.471,0.826-2.57,0.826
		c-1.015,0-1.83-0.195-2.444-0.588l0.35-1.26c0.663,0.393,1.391,0.588,2.184,0.588c0.569,0,1.012-0.129,1.33-0.385
		c0.318-0.261,0.476-0.604,0.476-1.029c0-0.383-0.131-0.705-0.392-0.967c-0.261-0.264-0.695-0.504-1.302-0.729
		c-1.652-0.617-2.478-1.521-2.478-2.703c0-0.771,0.292-1.405,0.875-1.901c0.583-0.494,1.355-0.742,2.317-0.742
		c0.859,0,1.573,0.147,2.142,0.449l-0.379,1.229c-0.534-0.289-1.138-0.437-1.812-0.437c-0.534,0-0.951,0.131-1.251,0.394
		c-0.253,0.231-0.379,0.521-0.379,0.854c0,0.373,0.145,0.682,0.434,0.924c0.252,0.225,0.709,0.468,1.372,0.729
		c0.812,0.328,1.409,0.71,1.792,1.146C62.19,226.219,62.382,226.764,62.382,227.418z"/>
	<path fill-opacity="0.17" d="M69.802,230.062h-1.33l-0.084-1.035H68.36c-0.476,0.793-1.195,1.188-2.156,1.188
		c-0.672,0-1.208-0.209-1.61-0.629c-0.476-0.514-0.714-1.289-0.714-2.322v-4.006h1.512v3.752c0,1.309,0.448,1.961,1.344,1.961
		c0.672,0,1.139-0.326,1.4-0.979c0.065-0.169,0.098-0.359,0.098-0.574v-4.158h1.512v4.846
		C69.746,228.748,69.764,229.4,69.802,230.062z"/>
	<path fill-opacity="0.17" d="M78.146,226.578c0,1.156-0.315,2.07-0.943,2.742c-0.563,0.599-1.263,0.896-2.098,0.896
		c-0.901,0-1.548-0.319-1.943-0.965v3.567H71.65v-7.323c0-0.728-0.019-1.474-0.056-2.236h1.33l0.084,1.078h0.028
		c0.504-0.812,1.27-1.219,2.296-1.219c0.803,0,1.472,0.317,2.009,0.95C77.877,224.706,78.146,225.541,78.146,226.578z
		 M76.605,226.633c0-0.662-0.149-1.208-0.448-1.637c-0.327-0.449-0.765-0.673-1.316-0.673c-0.374,0-0.712,0.124-1.015,0.37
		c-0.303,0.248-0.502,0.572-0.595,0.975c-0.047,0.188-0.07,0.34-0.07,0.461v1.135c0,0.494,0.152,0.912,0.455,1.254
		c0.303,0.34,0.698,0.51,1.183,0.51c0.569,0,1.013-0.219,1.33-0.654S76.605,227.352,76.605,226.633z"/>
	<path fill-opacity="0.17" d="M86.041,226.578c0,1.156-0.314,2.07-0.943,2.742c-0.562,0.599-1.262,0.896-2.098,0.896
		c-0.9,0-1.549-0.319-1.943-0.965v3.567h-1.511v-7.323c0-0.728-0.019-1.474-0.056-2.236h1.328l0.084,1.078h0.029
		c0.504-0.812,1.271-1.219,2.295-1.219c0.803,0,1.474,0.317,2.01,0.95C85.773,224.706,86.041,225.541,86.041,226.578z
		 M84.502,226.633c0-0.662-0.15-1.208-0.449-1.637c-0.326-0.449-0.766-0.673-1.316-0.673c-0.369,0-0.711,0.124-1.014,0.37
		c-0.305,0.248-0.502,0.572-0.596,0.975c-0.047,0.188-0.07,0.34-0.07,0.461v1.135c0,0.494,0.152,0.912,0.455,1.254
		c0.305,0.34,0.697,0.51,1.184,0.51c0.568,0,1.016-0.219,1.33-0.654C84.342,227.932,84.502,227.352,84.502,226.633z"/>
	<path fill-opacity="0.17" d="M93.727,226.605c0,1.045-0.299,1.9-0.896,2.576c-0.626,0.688-1.456,1.031-2.492,1.031
		c-0.999,0-1.795-0.33-2.388-0.99c-0.594-0.662-0.889-1.498-0.889-2.51c0-1.054,0.306-1.918,0.916-2.59
		c0.608-0.672,1.437-1.008,2.472-1.008c0.999,0,1.802,0.332,2.407,0.99C93.438,224.758,93.727,225.588,93.727,226.605z
		 M92.158,226.641c0-0.623-0.135-1.158-0.405-1.604c-0.317-0.539-0.771-0.811-1.358-0.811c-0.604,0-1.064,0.271-1.386,0.811
		c-0.271,0.445-0.405,0.99-0.405,1.633c0,0.624,0.136,1.159,0.405,1.604c0.326,0.541,0.784,0.812,1.372,0.812
		c0.578,0,1.031-0.273,1.357-0.824C92.02,227.805,92.158,227.264,92.158,226.641z"/>
	<path fill-opacity="0.17" d="M98.768,224.59c-0.146-0.027-0.309-0.043-0.477-0.043c-0.532,0-0.943,0.201-1.232,0.604
		c-0.252,0.354-0.377,0.806-0.377,1.348v3.566h-1.513v-4.662c0-0.781-0.015-1.498-0.042-2.143h1.314l0.058,1.303h0.042
		c0.158-0.445,0.41-0.809,0.756-1.078c0.336-0.24,0.7-0.361,1.092-0.361c0.141,0,0.271,0.01,0.379,0.025V224.59z"/>
	<path fill-opacity="0.17" d="M103.682,224.395h-1.666v3.307c0,0.84,0.295,1.26,0.883,1.26c0.271,0,0.494-0.021,0.672-0.066
		l0.041,1.146c-0.299,0.11-0.688,0.168-1.176,0.168c-0.598,0-1.062-0.185-1.396-0.545c-0.336-0.365-0.504-0.979-0.504-1.835v-3.432
		H99.54v-1.136h0.994v-1.245l1.481-0.447v1.692h1.666V224.395L103.682,224.395z"/>
</g>
<g>
	<path fill="#FFFFFF" d="M62.382,226.418c0,0.803-0.279,1.455-0.838,1.959c-0.614,0.551-1.471,0.826-2.57,0.826
		c-1.015,0-1.83-0.195-2.444-0.588l0.35-1.26c0.663,0.393,1.391,0.588,2.184,0.588c0.569,0,1.012-0.129,1.33-0.385
		c0.318-0.261,0.476-0.604,0.476-1.029c0-0.383-0.131-0.705-0.392-0.967c-0.261-0.264-0.695-0.504-1.302-0.729
		c-1.652-0.617-2.478-1.521-2.478-2.703c0-0.771,0.292-1.405,0.875-1.901c0.583-0.494,1.355-0.742,2.317-0.742
		c0.859,0,1.573,0.147,2.142,0.449l-0.379,1.229c-0.534-0.289-1.138-0.437-1.812-0.437c-0.534,0-0.951,0.131-1.251,0.394
		c-0.253,0.231-0.379,0.521-0.379,0.854c0,0.373,0.145,0.682,0.434,0.924c0.252,0.225,0.709,0.468,1.372,0.729
		c0.812,0.328,1.409,0.71,1.792,1.146C62.19,225.219,62.382,225.764,62.382,226.418z"/>
	<path fill="#FFFFFF" d="M69.801,229.062h-1.33l-0.084-1.035h-0.028c-0.476,0.793-1.195,1.188-2.156,1.188
		c-0.672,0-1.208-0.209-1.61-0.629c-0.476-0.514-0.714-1.289-0.714-2.322v-4.006h1.512v3.752c0,1.309,0.448,1.961,1.344,1.961
		c0.672,0,1.139-0.326,1.4-0.979c0.065-0.169,0.098-0.359,0.098-0.574v-4.158h1.512v4.846
		C69.745,227.748,69.764,228.4,69.801,229.062z"/>
	<path fill="#FFFFFF" d="M78.146,225.578c0,1.156-0.315,2.07-0.943,2.742c-0.563,0.599-1.263,0.896-2.098,0.896
		c-0.901,0-1.548-0.319-1.943-0.965v3.567H71.65v-7.323c0-0.728-0.019-1.474-0.056-2.236h1.33l0.084,1.078h0.028
		c0.504-0.812,1.27-1.219,2.296-1.219c0.803,0,1.472,0.317,2.009,0.95C77.877,223.706,78.146,224.541,78.146,225.578z
		 M76.605,225.633c0-0.662-0.149-1.208-0.448-1.637c-0.327-0.449-0.765-0.673-1.316-0.673c-0.374,0-0.712,0.124-1.015,0.37
		c-0.303,0.248-0.502,0.572-0.595,0.975c-0.047,0.188-0.07,0.34-0.07,0.461v1.135c0,0.494,0.152,0.912,0.455,1.254
		c0.303,0.34,0.698,0.51,1.183,0.51c0.569,0,1.013-0.219,1.33-0.654S76.605,226.352,76.605,225.633z"/>
	<path fill="#FFFFFF" d="M86.042,225.578c0,1.156-0.313,2.07-0.942,2.742c-0.562,0.599-1.264,0.896-2.099,0.896
		c-0.901,0-1.549-0.319-1.942-0.965v3.567h-1.513v-7.323c0-0.728-0.019-1.474-0.056-2.236h1.33l0.084,1.078h0.027
		c0.504-0.812,1.271-1.219,2.297-1.219c0.803,0,1.473,0.317,2.008,0.95C85.773,223.706,86.042,224.541,86.042,225.578z
		 M84.502,225.633c0-0.662-0.148-1.208-0.447-1.637c-0.328-0.449-0.767-0.673-1.315-0.673c-0.371,0-0.712,0.124-1.017,0.37
		c-0.304,0.248-0.502,0.572-0.595,0.975c-0.047,0.188-0.069,0.34-0.069,0.461v1.135c0,0.494,0.15,0.912,0.455,1.254
		c0.303,0.34,0.696,0.51,1.182,0.51c0.57,0,1.017-0.219,1.33-0.654C84.343,226.932,84.502,226.352,84.502,225.633z"/>
	<path fill="#FFFFFF" d="M93.729,225.605c0,1.045-0.299,1.9-0.896,2.576c-0.626,0.688-1.456,1.031-2.492,1.031
		c-0.999,0-1.795-0.33-2.388-0.99c-0.594-0.662-0.891-1.498-0.891-2.51c0-1.054,0.308-1.918,0.918-2.59
		c0.608-0.672,1.437-1.008,2.472-1.008c0.999,0,1.802,0.332,2.407,0.99C93.438,223.758,93.729,224.588,93.729,225.605z
		 M92.159,225.641c0-0.623-0.136-1.158-0.405-1.604c-0.316-0.539-0.771-0.811-1.357-0.811c-0.604,0-1.065,0.271-1.387,0.811
		c-0.271,0.445-0.406,0.99-0.406,1.633c0,0.624,0.139,1.159,0.406,1.604c0.326,0.541,0.784,0.812,1.372,0.812
		c0.578,0,1.031-0.273,1.356-0.824C92.02,226.805,92.159,226.264,92.159,225.641z"/>
	<path fill="#FFFFFF" d="M98.768,223.59c-0.146-0.027-0.308-0.043-0.476-0.043c-0.532,0-0.942,0.201-1.231,0.604
		c-0.252,0.354-0.379,0.806-0.379,1.348v3.566H95.17v-4.662c0-0.781-0.014-1.498-0.042-2.143h1.315l0.057,1.303h0.042
		c0.158-0.445,0.41-0.809,0.756-1.078c0.336-0.24,0.7-0.361,1.093-0.361c0.139,0,0.27,0.01,0.377,0.025V223.59z"/>
	<path fill="#FFFFFF" d="M103.684,223.395h-1.666v3.307c0,0.84,0.293,1.26,0.881,1.26c0.271,0,0.494-0.021,0.672-0.066l0.043,1.146
		c-0.299,0.11-0.688,0.168-1.176,0.168c-0.599,0-1.062-0.185-1.397-0.545c-0.336-0.365-0.504-0.979-0.504-1.835v-3.432H99.54v-1.136
		h0.994v-1.245l1.483-0.447v1.692h1.666V223.395L103.684,223.395z"/>
</g>
<g>
	<path fill-opacity="0.5" d="M63.76,189.177c0,0.271-0.089,0.489-0.266,0.658c-0.178,0.168-0.406,0.252-0.686,0.252
		c-0.252,0-0.464-0.087-0.637-0.259c-0.173-0.174-0.259-0.391-0.259-0.651c0-0.26,0.088-0.476,0.266-0.644
		c0.178-0.168,0.397-0.252,0.658-0.252c0.261,0,0.48,0.084,0.658,0.252C63.671,188.701,63.76,188.916,63.76,189.177z
		 M63.592,198.011H62.08v-6.804h1.512V198.011L63.592,198.011z"/>
	<path fill-opacity="0.5" d="M71.404,189.85h-2.716v8.161h-1.512v-8.161h-2.688v-1.271h6.916V189.85z"/>
	<path fill-opacity="0.5" d="M77.634,198.011h-1.33l-0.084-1.036h-0.028c-0.476,0.793-1.195,1.189-2.156,1.189
		c-0.672,0-1.208-0.209-1.61-0.629c-0.476-0.514-0.714-1.289-0.714-2.324v-4.004h1.512v3.752c0,1.307,0.448,1.96,1.344,1.96
		c0.672,0,1.139-0.327,1.4-0.979c0.065-0.168,0.098-0.355,0.098-0.57v-4.158h1.512v4.846
		C77.578,196.695,77.597,197.348,77.634,198.011z"/>
	<path fill-opacity="0.5" d="M85.404,198.011h-1.512v-3.905c0-1.205-0.459-1.807-1.373-1.807c-0.447,0-0.812,0.166-1.096,0.497
		s-0.42,0.722-0.42,1.169v4.046h-1.512v-4.858c0-0.596-0.019-1.242-0.056-1.941h1.333l0.066,1.05h0.041
		c0.182-0.323,0.438-0.597,0.785-0.812c0.41-0.254,0.865-0.381,1.371-0.381c0.635,0,1.16,0.205,1.582,0.617
		c0.521,0.504,0.781,1.254,0.781,2.254v4.072L85.404,198.011L85.404,198.011z"/>
	<path fill-opacity="0.5" d="M92.865,194.287c0,0.271-0.02,0.499-0.057,0.686h-4.535c0.019,0.672,0.234,1.188,0.658,1.541
		c0.383,0.316,0.877,0.479,1.479,0.479c0.673,0,1.28-0.107,1.834-0.322l0.235,1.053c-0.645,0.277-1.401,0.422-2.279,0.422
		c-1.059,0-1.887-0.312-2.48-0.936c-0.604-0.62-0.904-1.453-0.904-2.498c0-1.023,0.281-1.881,0.841-2.562
		c0.588-0.729,1.382-1.092,2.38-1.092c0.98,0,1.723,0.361,2.227,1.092C92.665,192.725,92.865,193.438,92.865,194.287z
		 M91.424,193.895c0.01-0.443-0.089-0.834-0.294-1.162c-0.262-0.42-0.663-0.629-1.204-0.629c-0.494,0-0.896,0.205-1.203,0.615
		c-0.252,0.326-0.402,0.719-0.449,1.176H91.424L91.424,193.895z"/>
	<path fill-opacity="0.5" d="M98.354,196.051c0,0.635-0.229,1.145-0.699,1.525c-0.467,0.383-1.108,0.574-1.934,0.574
		c-0.771,0-1.433-0.154-1.974-0.461l0.321-1.121c0.521,0.314,1.078,0.477,1.666,0.477c0.771,0,1.162-0.285,1.162-0.854
		c0-0.252-0.084-0.461-0.252-0.623c-0.168-0.164-0.47-0.324-0.896-0.483c-1.213-0.448-1.818-1.103-1.818-1.96
		c0-0.588,0.225-1.078,0.672-1.471c0.446-0.396,1.041-0.588,1.776-0.588c0.672,0,1.246,0.136,1.724,0.406l-0.322,1.074
		c-0.438-0.262-0.898-0.395-1.385-0.395c-0.315,0-0.563,0.074-0.742,0.227c-0.178,0.146-0.269,0.344-0.269,0.574
		c0,0.229,0.095,0.424,0.28,0.572c0.159,0.142,0.467,0.293,0.924,0.463C97.768,194.441,98.354,195.127,98.354,196.051z"/>
</g>
<g>
	<path fill-opacity="0.17" d="M63.76,191.177c0,0.271-0.089,0.489-0.266,0.658c-0.178,0.168-0.406,0.252-0.686,0.252
		c-0.252,0-0.464-0.087-0.637-0.259c-0.173-0.174-0.259-0.391-0.259-0.651c0-0.26,0.088-0.476,0.266-0.644
		c0.178-0.168,0.397-0.252,0.658-0.252c0.261,0,0.48,0.084,0.658,0.252C63.671,190.701,63.76,190.916,63.76,191.177z
		 M63.592,200.011H62.08v-6.804h1.512V200.011L63.592,200.011z"/>
	<path fill-opacity="0.17" d="M71.404,191.85h-2.716v8.161h-1.512v-8.161h-2.688v-1.271h6.916V191.85z"/>
	<path fill-opacity="0.17" d="M77.634,200.011h-1.33l-0.084-1.036h-0.028c-0.476,0.793-1.195,1.189-2.156,1.189
		c-0.672,0-1.208-0.209-1.61-0.629c-0.476-0.514-0.714-1.289-0.714-2.324v-4.004h1.512v3.752c0,1.307,0.448,1.96,1.344,1.96
		c0.672,0,1.139-0.327,1.4-0.979c0.065-0.168,0.098-0.355,0.098-0.57v-4.158h1.512v4.846
		C77.578,198.695,77.597,199.348,77.634,200.011z"/>
	<path fill-opacity="0.17" d="M85.404,200.011h-1.512v-3.905c0-1.205-0.459-1.807-1.373-1.807c-0.447,0-0.812,0.166-1.096,0.497
		s-0.42,0.722-0.42,1.169v4.046h-1.512v-4.858c0-0.596-0.019-1.242-0.056-1.941h1.333l0.066,1.05h0.041
		c0.182-0.323,0.438-0.597,0.785-0.812c0.41-0.254,0.865-0.381,1.371-0.381c0.635,0,1.16,0.205,1.582,0.617
		c0.521,0.504,0.781,1.254,0.781,2.254v4.072L85.404,200.011L85.404,200.011z"/>
	<path fill-opacity="0.17" d="M92.865,196.287c0,0.271-0.02,0.499-0.057,0.686h-4.535c0.019,0.672,0.234,1.188,0.658,1.541
		c0.383,0.316,0.877,0.479,1.479,0.479c0.673,0,1.28-0.107,1.834-0.322l0.235,1.053c-0.645,0.277-1.401,0.422-2.279,0.422
		c-1.059,0-1.887-0.312-2.48-0.936c-0.604-0.62-0.904-1.453-0.904-2.498c0-1.023,0.281-1.881,0.841-2.562
		c0.588-0.729,1.382-1.092,2.38-1.092c0.98,0,1.723,0.361,2.227,1.092C92.665,194.725,92.865,195.438,92.865,196.287z
		 M91.424,195.895c0.01-0.443-0.089-0.834-0.294-1.162c-0.262-0.42-0.663-0.629-1.204-0.629c-0.494,0-0.896,0.205-1.203,0.615
		c-0.252,0.326-0.402,0.719-0.449,1.176H91.424L91.424,195.895z"/>
	<path fill-opacity="0.17" d="M98.354,198.051c0,0.635-0.229,1.145-0.699,1.525c-0.467,0.383-1.108,0.574-1.934,0.574
		c-0.771,0-1.433-0.154-1.974-0.461l0.321-1.121c0.521,0.314,1.078,0.477,1.666,0.477c0.771,0,1.162-0.285,1.162-0.854
		c0-0.252-0.084-0.461-0.252-0.623c-0.168-0.164-0.47-0.324-0.896-0.483c-1.213-0.448-1.818-1.103-1.818-1.96
		c0-0.588,0.225-1.078,0.672-1.471c0.446-0.396,1.041-0.588,1.776-0.588c0.672,0,1.246,0.136,1.724,0.406l-0.322,1.074
		c-0.438-0.262-0.898-0.395-1.385-0.395c-0.315,0-0.563,0.074-0.742,0.227c-0.178,0.146-0.269,0.344-0.269,0.574
		c0,0.229,0.095,0.424,0.28,0.572c0.159,0.142,0.467,0.293,0.924,0.463C97.768,196.441,98.354,197.127,98.354,198.051z"/>
</g>
<g>
	<path fill="#FFFFFF" d="M63.76,190.177c0,0.271-0.089,0.489-0.266,0.658c-0.178,0.168-0.406,0.252-0.686,0.252
		c-0.252,0-0.464-0.087-0.637-0.259c-0.173-0.174-0.259-0.391-0.259-0.651c0-0.26,0.088-0.476,0.266-0.644
		c0.178-0.168,0.397-0.252,0.658-0.252c0.261,0,0.48,0.084,0.658,0.252C63.671,189.701,63.76,189.916,63.76,190.177z
		 M63.592,199.011H62.08v-6.804h1.512V199.011L63.592,199.011z"/>
	<path fill="#FFFFFF" d="M71.404,190.85h-2.716v8.161h-1.512v-8.161h-2.688v-1.271h6.916V190.85z"/>
	<path fill="#FFFFFF" d="M77.634,199.011h-1.33l-0.084-1.036h-0.028c-0.476,0.793-1.195,1.189-2.156,1.189
		c-0.672,0-1.208-0.209-1.61-0.629c-0.476-0.514-0.714-1.289-0.714-2.324v-4.004h1.512v3.752c0,1.307,0.448,1.96,1.344,1.96
		c0.672,0,1.139-0.327,1.4-0.979c0.065-0.168,0.098-0.355,0.098-0.57v-4.158h1.512v4.846
		C77.578,197.695,77.597,198.348,77.634,199.011z"/>
	<path fill="#FFFFFF" d="M85.404,199.011h-1.512v-3.905c0-1.205-0.459-1.807-1.373-1.807c-0.447,0-0.812,0.166-1.095,0.497
		c-0.276,0.331-0.421,0.722-0.421,1.169v4.046h-1.512v-4.858c0-0.596-0.019-1.242-0.056-1.941h1.333l0.065,1.05h0.042
		c0.182-0.323,0.438-0.597,0.784-0.812c0.411-0.254,0.866-0.381,1.372-0.381c0.635,0,1.16,0.205,1.582,0.617
		c0.521,0.504,0.781,1.254,0.781,2.254v4.072L85.404,199.011L85.404,199.011z"/>
	<path fill="#FFFFFF" d="M92.866,195.287c0,0.271-0.019,0.499-0.056,0.686h-4.537c0.02,0.672,0.235,1.188,0.658,1.541
		c0.383,0.316,0.877,0.479,1.48,0.479c0.673,0,1.281-0.107,1.834-0.322l0.234,1.053c-0.644,0.277-1.4,0.422-2.278,0.422
		c-1.058,0-1.886-0.312-2.481-0.936c-0.604-0.62-0.902-1.453-0.902-2.498c0-1.023,0.279-1.881,0.84-2.562
		c0.588-0.729,1.382-1.092,2.38-1.092c0.979,0,1.723,0.361,2.228,1.092C92.666,193.725,92.866,194.438,92.866,195.287z
		 M91.425,194.895c0.009-0.443-0.089-0.834-0.294-1.162c-0.262-0.42-0.663-0.629-1.204-0.629c-0.495,0-0.896,0.205-1.204,0.615
		c-0.252,0.326-0.397,0.719-0.447,1.176H91.425L91.425,194.895z"/>
	<path fill="#FFFFFF" d="M98.354,197.051c0,0.635-0.229,1.145-0.699,1.525c-0.467,0.383-1.108,0.574-1.934,0.574
		c-0.771,0-1.433-0.154-1.974-0.461l0.321-1.121c0.521,0.314,1.078,0.477,1.666,0.477c0.771,0,1.162-0.285,1.162-0.854
		c0-0.252-0.084-0.461-0.252-0.623c-0.168-0.164-0.47-0.324-0.896-0.483c-1.213-0.448-1.818-1.103-1.818-1.96
		c0-0.588,0.225-1.078,0.672-1.471c0.446-0.396,1.041-0.588,1.776-0.588c0.672,0,1.246,0.136,1.724,0.406l-0.322,1.074
		c-0.438-0.262-0.898-0.395-1.385-0.395c-0.315,0-0.563,0.074-0.742,0.227c-0.178,0.146-0.269,0.344-0.269,0.574
		c0,0.229,0.095,0.424,0.28,0.572c0.159,0.142,0.467,0.293,0.924,0.463C97.768,195.441,98.354,196.127,98.354,197.051z"/>
</g>
<g>
	<path fill-opacity="0.5" d="M69.948,159.389c0,0.271-0.089,0.49-0.266,0.658c-0.178,0.168-0.406,0.252-0.686,0.252
		c-0.252,0-0.464-0.086-0.637-0.26c-0.173-0.172-0.259-0.389-0.259-0.65c0-0.261,0.088-0.477,0.266-0.645
		c0.178-0.168,0.397-0.252,0.658-0.252c0.261,0,0.48,0.084,0.658,0.252C69.859,158.912,69.948,159.127,69.948,159.389z
		 M69.78,168.223h-1.512v-6.805h1.512V168.223z"/>
	<path fill-opacity="0.5" d="M77.83,161.531c0,0.867-0.256,1.562-0.768,2.086c-0.661,0.681-1.624,1.021-2.889,1.021
		c-0.372,0-0.661-0.023-0.865-0.07v3.654h-1.512v-9.312c0.719-0.131,1.54-0.195,2.464-0.195c1.194,0,2.095,0.258,2.702,0.771
		C77.541,159.99,77.83,160.672,77.83,161.531z M76.332,161.602c0-0.551-0.176-0.975-0.529-1.268
		c-0.354-0.295-0.846-0.441-1.478-0.441c-0.418,0-0.757,0.028-1.017,0.084v3.393c0.213,0.056,0.506,0.084,0.878,0.084
		c0.669,0,1.194-0.164,1.575-0.49C76.142,162.632,76.332,162.18,76.332,161.602z"/>
	<path fill-opacity="0.5" d="M83.99,168.223h-1.357l-0.113-0.783h-0.041c-0.467,0.625-1.129,0.938-1.984,0.938
		c-0.644,0-1.162-0.205-1.554-0.616c-0.354-0.371-0.532-0.835-0.532-1.386c0-0.831,0.348-1.465,1.043-1.903
		c0.695-0.438,1.674-0.651,2.934-0.646v-0.125c0-0.896-0.473-1.347-1.412-1.347c-0.674,0-1.268,0.168-1.781,0.506l-0.308-0.993
		c0.634-0.394,1.414-0.589,2.341-0.589c1.778,0,2.674,0.938,2.674,2.812v2.507C83.893,167.279,83.926,167.82,83.99,168.223z
		 M82.422,165.885v-1.051c-1.67-0.027-2.506,0.43-2.506,1.373c0,0.354,0.098,0.621,0.292,0.798s0.44,0.267,0.739,0.267
		c0.334,0,0.643-0.104,0.926-0.312s0.457-0.479,0.521-0.809C82.412,166.076,82.422,165.986,82.422,165.885z"/>
	<path fill-opacity="0.5" d="M91.802,168.223h-1.344l-0.069-1.092h-0.043c-0.429,0.83-1.156,1.246-2.184,1.246
		c-0.821,0-1.503-0.322-2.044-0.967s-0.812-1.479-0.812-2.506c0-1.104,0.295-1.992,0.887-2.674c0.572-0.635,1.277-0.951,2.111-0.951
		c0.92,0,1.562,0.307,1.93,0.924v-3.906h1.513v8.092C91.746,167.051,91.766,167.662,91.802,168.223z M90.234,165.354v-1.135
		c0-0.195-0.019-0.354-0.043-0.477c-0.084-0.363-0.271-0.669-0.549-0.916c-0.281-0.248-0.617-0.371-1.015-0.371
		c-0.562,0-1.006,0.225-1.329,0.672c-0.32,0.447-0.48,1.021-0.48,1.723c0,0.672,0.154,1.217,0.464,1.637
		c0.327,0.449,0.769,0.676,1.321,0.676c0.496,0,0.895-0.188,1.19-0.562C90.089,166.254,90.234,165.838,90.234,165.354z"/>
</g>
<g>
	<path fill-opacity="0.17" d="M69.948,161.389c0,0.271-0.089,0.49-0.266,0.658c-0.178,0.168-0.406,0.252-0.686,0.252
		c-0.252,0-0.464-0.086-0.637-0.26c-0.173-0.172-0.259-0.389-0.259-0.65c0-0.261,0.088-0.477,0.266-0.645
		c0.178-0.168,0.397-0.252,0.658-0.252c0.261,0,0.48,0.084,0.658,0.252C69.859,160.912,69.948,161.127,69.948,161.389z
		 M69.78,170.223h-1.512v-6.805h1.512V170.223z"/>
	<path fill-opacity="0.17" d="M77.83,163.531c0,0.867-0.256,1.562-0.768,2.086c-0.661,0.681-1.624,1.021-2.889,1.021
		c-0.372,0-0.661-0.023-0.865-0.07v3.654h-1.512v-9.312c0.719-0.131,1.54-0.195,2.464-0.195c1.194,0,2.095,0.258,2.702,0.771
		C77.541,161.99,77.83,162.672,77.83,163.531z M76.332,163.602c0-0.551-0.176-0.975-0.529-1.268
		c-0.354-0.295-0.846-0.441-1.478-0.441c-0.418,0-0.757,0.028-1.017,0.084v3.393c0.213,0.056,0.506,0.084,0.878,0.084
		c0.669,0,1.194-0.164,1.575-0.49C76.142,164.632,76.332,164.18,76.332,163.602z"/>
	<path fill-opacity="0.17" d="M83.99,170.223h-1.357l-0.113-0.783h-0.041c-0.467,0.625-1.129,0.938-1.984,0.938
		c-0.644,0-1.162-0.205-1.554-0.616c-0.354-0.371-0.532-0.835-0.532-1.386c0-0.831,0.348-1.465,1.043-1.903
		c0.695-0.438,1.674-0.651,2.934-0.646v-0.125c0-0.896-0.473-1.347-1.412-1.347c-0.674,0-1.268,0.168-1.781,0.506l-0.308-0.993
		c0.634-0.394,1.414-0.589,2.341-0.589c1.778,0,2.674,0.938,2.674,2.812v2.507C83.893,169.279,83.926,169.82,83.99,170.223z
		 M82.422,167.885v-1.051c-1.67-0.027-2.506,0.43-2.506,1.373c0,0.354,0.098,0.621,0.292,0.798s0.44,0.267,0.739,0.267
		c0.334,0,0.643-0.104,0.926-0.312s0.457-0.479,0.521-0.809C82.412,168.076,82.422,167.986,82.422,167.885z"/>
	<path fill-opacity="0.17" d="M91.802,170.223h-1.344l-0.069-1.092h-0.043c-0.429,0.83-1.156,1.246-2.184,1.246
		c-0.821,0-1.503-0.322-2.044-0.967s-0.812-1.479-0.812-2.506c0-1.104,0.295-1.992,0.887-2.674c0.572-0.635,1.277-0.951,2.111-0.951
		c0.92,0,1.562,0.307,1.93,0.924v-3.906h1.513v8.092C91.746,169.051,91.766,169.662,91.802,170.223z M90.234,167.354v-1.135
		c0-0.195-0.019-0.354-0.043-0.477c-0.084-0.363-0.271-0.669-0.549-0.916c-0.281-0.248-0.617-0.371-1.015-0.371
		c-0.562,0-1.006,0.225-1.329,0.672c-0.32,0.447-0.48,1.021-0.48,1.723c0,0.672,0.154,1.217,0.464,1.637
		c0.327,0.449,0.769,0.676,1.321,0.676c0.496,0,0.895-0.188,1.19-0.562C90.089,168.254,90.234,167.838,90.234,167.354z"/>
</g>
<g>
	<path fill="#FFFFFF" d="M69.948,160.389c0,0.271-0.089,0.49-0.266,0.658c-0.178,0.168-0.406,0.252-0.686,0.252
		c-0.252,0-0.464-0.086-0.637-0.26c-0.173-0.172-0.259-0.389-0.259-0.65c0-0.261,0.088-0.477,0.266-0.645
		c0.178-0.168,0.397-0.252,0.658-0.252c0.261,0,0.48,0.084,0.658,0.252C69.859,159.912,69.948,160.127,69.948,160.389z
		 M69.78,169.223h-1.512v-6.805h1.512V169.223z"/>
	<path fill="#FFFFFF" d="M77.831,162.531c0,0.867-0.256,1.562-0.768,2.086c-0.661,0.681-1.624,1.021-2.889,1.021
		c-0.372,0-0.661-0.023-0.865-0.07v3.654h-1.512v-9.312c0.719-0.131,1.54-0.195,2.464-0.195c1.194,0,2.095,0.258,2.702,0.771
		C77.541,160.99,77.831,161.672,77.831,162.531z M76.333,162.602c0-0.551-0.176-0.975-0.529-1.268
		c-0.354-0.295-0.846-0.441-1.478-0.441c-0.418,0-0.757,0.028-1.017,0.084v3.393c0.213,0.056,0.506,0.084,0.878,0.084
		c0.669,0,1.194-0.164,1.575-0.49C76.142,163.632,76.333,163.18,76.333,162.602z"/>
	<path fill="#FFFFFF" d="M83.99,169.223h-1.357l-0.111-0.783h-0.043c-0.467,0.625-1.129,0.938-1.984,0.938
		c-0.644,0-1.162-0.205-1.554-0.616c-0.354-0.371-0.532-0.835-0.532-1.386c0-0.831,0.348-1.465,1.043-1.903
		c0.695-0.438,1.673-0.651,2.933-0.646v-0.125c0-0.896-0.472-1.347-1.413-1.347c-0.673,0-1.266,0.168-1.779,0.506l-0.308-0.993
		c0.634-0.394,1.414-0.589,2.341-0.589c1.779,0,2.674,0.938,2.674,2.812v2.507C83.893,168.279,83.926,168.82,83.99,169.223z
		 M82.423,166.885v-1.051c-1.671-0.027-2.506,0.43-2.506,1.373c0,0.354,0.098,0.621,0.292,0.798s0.441,0.267,0.738,0.267
		c0.334,0,0.643-0.104,0.926-0.312s0.457-0.479,0.521-0.809C82.413,167.076,82.423,166.986,82.423,166.885z"/>
	<path fill="#FFFFFF" d="M91.802,169.223h-1.344l-0.069-1.092h-0.043c-0.429,0.83-1.156,1.246-2.184,1.246
		c-0.821,0-1.503-0.322-2.044-0.967s-0.812-1.479-0.812-2.506c0-1.104,0.295-1.992,0.887-2.674c0.572-0.635,1.277-0.951,2.111-0.951
		c0.92,0,1.562,0.307,1.93,0.924v-3.906h1.513v8.092C91.746,168.051,91.766,168.662,91.802,169.223z M90.234,166.354v-1.135
		c0-0.195-0.019-0.354-0.043-0.477c-0.084-0.363-0.271-0.669-0.549-0.916c-0.281-0.248-0.617-0.371-1.015-0.371
		c-0.562,0-1.006,0.225-1.329,0.672c-0.32,0.447-0.48,1.021-0.48,1.723c0,0.672,0.154,1.217,0.464,1.637
		c0.327,0.449,0.769,0.676,1.321,0.676c0.496,0,0.895-0.188,1.19-0.562C90.089,167.254,90.234,166.838,90.234,166.354z"/>
</g>
<g>
	<path fill-opacity="0.5" d="M62.024,129.166c0,0.271-0.089,0.49-0.266,0.658c-0.178,0.168-0.406,0.252-0.686,0.252
		c-0.252,0-0.464-0.086-0.637-0.259c-0.173-0.172-0.259-0.39-0.259-0.651s0.088-0.476,0.266-0.644
		c0.178-0.168,0.397-0.252,0.658-0.252c0.261,0,0.48,0.084,0.658,0.252C61.935,128.69,62.024,128.905,62.024,129.166z M61.856,138
		h-1.512v-6.804h1.512V138z"/>
	<path fill-opacity="0.5" d="M69.906,131.308c0,0.868-0.256,1.563-0.768,2.086c-0.661,0.681-1.624,1.022-2.889,1.022
		c-0.372,0-0.661-0.023-0.865-0.07V138h-1.512v-9.31c0.719-0.13,1.54-0.196,2.464-0.196c1.194,0,2.095,0.257,2.702,0.77
		C69.616,129.768,69.906,130.449,69.906,131.308z M68.408,131.378c0-0.55-0.176-0.973-0.529-1.267
		c-0.354-0.294-0.846-0.441-1.478-0.441c-0.418,0-0.757,0.028-1.017,0.084v3.388c0.213,0.056,0.506,0.084,0.878,0.084
		c0.669,0,1.194-0.163,1.575-0.49C68.217,132.409,68.408,131.957,68.408,131.378z"/>
	<path fill-opacity="0.5" d="M77.228,138h-1.512v-3.878c0-1.223-0.458-1.834-1.372-1.834c-0.7,0-1.181,0.354-1.442,1.064
		c-0.047,0.149-0.07,0.332-0.07,0.546V138H71.32v-9.926h1.512v4.088h0.028c0.476-0.737,1.157-1.106,2.044-1.106
		c0.625,0,1.143,0.205,1.554,0.616c0.513,0.514,0.77,1.274,0.77,2.282V138z"/>
	<path fill-opacity="0.5" d="M85.32,134.542c0,1.045-0.299,1.903-0.896,2.576c-0.625,0.69-1.455,1.036-2.492,1.036
		c-0.998,0-1.792-0.332-2.387-0.994c-0.593-0.662-0.889-1.498-0.889-2.506c0-1.054,0.306-1.918,0.917-2.59
		c0.611-0.672,1.435-1.008,2.47-1.008c1,0,1.803,0.331,2.408,0.994C85.031,132.694,85.32,133.525,85.32,134.542z M83.752,134.577
		c0-0.624-0.135-1.159-0.406-1.605c-0.316-0.54-0.77-0.81-1.354-0.81c-0.607,0-1.069,0.27-1.391,0.81
		c-0.271,0.447-0.406,0.991-0.406,1.633c0,0.624,0.135,1.159,0.406,1.606c0.326,0.539,0.785,0.809,1.373,0.809
		c0.578,0,1.031-0.271,1.357-0.819C83.611,135.741,83.752,135.201,83.752,134.577z"/>
	<path fill-opacity="0.5" d="M92.684,138h-1.512v-3.906c0-1.204-0.458-1.806-1.372-1.806c-0.448,0-0.812,0.166-1.092,0.497
		s-0.421,0.721-0.421,1.169V138h-1.512v-4.858c0-0.597-0.021-1.246-0.06-1.946h1.33l0.069,1.05h0.042
		c0.178-0.327,0.438-0.597,0.78-0.812c0.412-0.252,0.869-0.378,1.373-0.378c0.638,0,1.162,0.205,1.582,0.616
		c0.521,0.504,0.783,1.255,0.783,2.254V138H92.684z"/>
	<path fill-opacity="0.5" d="M100.146,134.276c0,0.271-0.021,0.5-0.06,0.686h-4.532c0.019,0.672,0.234,1.187,0.654,1.54
		c0.387,0.316,0.877,0.477,1.48,0.477c0.676,0,1.283-0.104,1.834-0.318l0.238,1.05c-0.645,0.276-1.404,0.42-2.283,0.42
		c-1.055,0-1.883-0.312-2.48-0.935c-0.604-0.617-0.9-1.45-0.9-2.5c0-1.026,0.277-1.88,0.84-2.562
		c0.588-0.728,1.383-1.092,2.381-1.092c0.979,0,1.723,0.364,2.227,1.092C99.945,132.713,100.146,133.427,100.146,134.276z
		 M98.704,133.884c0.009-0.448-0.089-0.835-0.294-1.162c-0.262-0.42-0.663-0.63-1.204-0.63c-0.495,0-0.896,0.206-1.204,0.616
		c-0.252,0.327-0.4,0.719-0.447,1.176H98.704L98.704,133.884z"/>
</g>
<g>
	<path fill-opacity="0.17" d="M62.024,131.166c0,0.271-0.089,0.49-0.266,0.658c-0.178,0.168-0.406,0.252-0.686,0.252
		c-0.252,0-0.464-0.086-0.637-0.259c-0.173-0.172-0.259-0.39-0.259-0.651s0.088-0.476,0.266-0.644
		c0.178-0.168,0.397-0.252,0.658-0.252c0.261,0,0.48,0.084,0.658,0.252C61.935,130.69,62.024,130.905,62.024,131.166z M61.856,140
		h-1.512v-6.804h1.512V140z"/>
	<path fill-opacity="0.17" d="M69.906,133.308c0,0.868-0.256,1.563-0.768,2.086c-0.661,0.681-1.624,1.022-2.889,1.022
		c-0.372,0-0.661-0.023-0.865-0.07V140h-1.512v-9.31c0.719-0.13,1.54-0.196,2.464-0.196c1.194,0,2.095,0.257,2.702,0.77
		C69.616,131.768,69.906,132.449,69.906,133.308z M68.408,133.378c0-0.55-0.176-0.973-0.529-1.267
		c-0.354-0.294-0.846-0.441-1.478-0.441c-0.418,0-0.757,0.028-1.017,0.084v3.388c0.213,0.056,0.506,0.084,0.878,0.084
		c0.669,0,1.194-0.163,1.575-0.49C68.217,134.409,68.408,133.957,68.408,133.378z"/>
	<path fill-opacity="0.17" d="M77.228,140h-1.512v-3.878c0-1.223-0.458-1.834-1.372-1.834c-0.7,0-1.181,0.354-1.442,1.064
		c-0.047,0.149-0.07,0.332-0.07,0.546V140H71.32v-9.926h1.512v4.088h0.028c0.476-0.737,1.157-1.106,2.044-1.106
		c0.625,0,1.143,0.205,1.554,0.616c0.513,0.514,0.77,1.274,0.77,2.282V140z"/>
	<path fill-opacity="0.17" d="M85.32,136.542c0,1.045-0.299,1.903-0.896,2.576c-0.625,0.69-1.455,1.036-2.492,1.036
		c-0.998,0-1.792-0.332-2.387-0.994c-0.593-0.662-0.889-1.498-0.889-2.506c0-1.055,0.306-1.918,0.917-2.59
		c0.611-0.672,1.435-1.008,2.47-1.008c1,0,1.803,0.331,2.408,0.994C85.031,134.694,85.32,135.525,85.32,136.542z M83.752,136.577
		c0-0.624-0.135-1.159-0.406-1.605c-0.316-0.54-0.77-0.81-1.354-0.81c-0.607,0-1.069,0.27-1.391,0.81
		c-0.271,0.447-0.406,0.991-0.406,1.633c0,0.623,0.135,1.158,0.406,1.604c0.326,0.539,0.785,0.811,1.373,0.811
		c0.578,0,1.031-0.271,1.357-0.821C83.611,137.741,83.752,137.201,83.752,136.577z"/>
	<path fill-opacity="0.17" d="M92.684,140h-1.512v-3.906c0-1.204-0.458-1.806-1.372-1.806c-0.448,0-0.812,0.166-1.092,0.497
		s-0.421,0.721-0.421,1.169V140h-1.512v-4.858c0-0.597-0.021-1.246-0.06-1.946h1.33l0.069,1.05h0.042
		c0.178-0.327,0.438-0.597,0.78-0.812c0.412-0.252,0.869-0.378,1.373-0.378c0.638,0,1.162,0.205,1.582,0.616
		c0.521,0.504,0.783,1.255,0.783,2.254V140H92.684z"/>
	<path fill-opacity="0.17" d="M100.146,136.275c0,0.271-0.021,0.5-0.06,0.687h-4.532c0.019,0.672,0.234,1.187,0.654,1.54
		c0.387,0.316,0.877,0.477,1.48,0.477c0.676,0,1.283-0.104,1.834-0.318l0.238,1.05c-0.645,0.276-1.404,0.42-2.283,0.42
		c-1.055,0-1.883-0.312-2.48-0.935c-0.604-0.617-0.9-1.45-0.9-2.5c0-1.023,0.277-1.877,0.84-2.562
		c0.588-0.728,1.383-1.092,2.381-1.092c0.979,0,1.723,0.364,2.227,1.092C99.945,134.713,100.146,135.427,100.146,136.275z
		 M98.704,135.884c0.009-0.448-0.089-0.835-0.294-1.162c-0.262-0.42-0.663-0.63-1.204-0.63c-0.495,0-0.896,0.206-1.204,0.616
		c-0.252,0.327-0.4,0.719-0.447,1.176H98.704L98.704,135.884z"/>
</g>
<g>
	<path fill="#FFFFFF" d="M62.024,130.166c0,0.271-0.089,0.49-0.266,0.658c-0.178,0.168-0.406,0.252-0.686,0.252
		c-0.252,0-0.464-0.086-0.637-0.259c-0.173-0.172-0.259-0.39-0.259-0.651s0.088-0.476,0.266-0.644
		c0.178-0.168,0.397-0.252,0.658-0.252c0.261,0,0.48,0.084,0.658,0.252C61.935,129.69,62.024,129.905,62.024,130.166z M61.856,139
		h-1.512v-6.804h1.512V139z"/>
	<path fill="#FFFFFF" d="M69.906,132.308c0,0.868-0.256,1.563-0.768,2.086c-0.661,0.681-1.624,1.022-2.889,1.022
		c-0.372,0-0.661-0.023-0.865-0.07V139h-1.512v-9.31c0.719-0.13,1.54-0.196,2.464-0.196c1.194,0,2.095,0.257,2.702,0.77
		C69.617,130.768,69.906,131.449,69.906,132.308z M68.408,132.378c0-0.55-0.176-0.973-0.529-1.267
		c-0.354-0.294-0.846-0.441-1.478-0.441c-0.418,0-0.757,0.028-1.017,0.084v3.388c0.213,0.056,0.506,0.084,0.878,0.084
		c0.669,0,1.194-0.163,1.575-0.49C68.218,133.409,68.408,132.957,68.408,132.378z"/>
	<path fill="#FFFFFF" d="M77.228,139h-1.512v-3.878c0-1.223-0.458-1.834-1.372-1.834c-0.7,0-1.181,0.354-1.442,1.064
		c-0.047,0.149-0.07,0.332-0.07,0.546V139H71.32v-9.926h1.512v4.088h0.028c0.476-0.737,1.157-1.106,2.044-1.106
		c0.625,0,1.143,0.205,1.554,0.616c0.513,0.514,0.77,1.274,0.77,2.282V139z"/>
	<path fill="#FFFFFF" d="M85.32,135.542c0,1.046-0.299,1.903-0.896,2.576c-0.626,0.69-1.456,1.036-2.492,1.036
		c-0.998,0-1.792-0.332-2.387-0.994c-0.593-0.662-0.889-1.498-0.889-2.506c0-1.054,0.306-1.918,0.917-2.59
		c0.611-0.672,1.435-1.008,2.471-1.008c0.999,0,1.802,0.331,2.408,0.994C85.031,133.694,85.32,134.525,85.32,135.542z
		 M83.752,135.577c0-0.624-0.135-1.159-0.404-1.605c-0.318-0.54-0.771-0.81-1.355-0.81c-0.606,0-1.068,0.27-1.389,0.81
		c-0.271,0.447-0.407,0.991-0.407,1.633c0,0.623,0.135,1.158,0.407,1.604c0.326,0.539,0.783,0.811,1.371,0.811
		c0.578,0,1.031-0.271,1.357-0.821C83.611,136.74,83.752,136.201,83.752,135.577z"/>
	<path fill="#FFFFFF" d="M92.686,139h-1.513v-3.906c0-1.204-0.458-1.806-1.372-1.806c-0.447,0-0.812,0.166-1.092,0.497
		c-0.279,0.331-0.421,0.721-0.421,1.169V139h-1.513v-4.858c0-0.597-0.021-1.246-0.055-1.946h1.326l0.069,1.05h0.042
		c0.178-0.327,0.438-0.597,0.781-0.812c0.41-0.252,0.867-0.378,1.371-0.378c0.639,0,1.162,0.205,1.582,0.616
		c0.522,0.504,0.785,1.255,0.785,2.254V139H92.686z"/>
	<path fill="#FFFFFF" d="M100.146,135.276c0,0.271-0.021,0.5-0.06,0.686h-4.532c0.019,0.672,0.234,1.187,0.654,1.54
		c0.387,0.316,0.877,0.477,1.48,0.477c0.676,0,1.283-0.104,1.834-0.318l0.238,1.05c-0.645,0.276-1.404,0.42-2.283,0.42
		c-1.055,0-1.883-0.312-2.48-0.935c-0.604-0.617-0.9-1.45-0.9-2.5c0-1.022,0.277-1.876,0.84-2.562
		c0.588-0.728,1.383-1.092,2.381-1.092c0.979,0,1.723,0.364,2.227,1.092C99.945,133.713,100.146,134.427,100.146,135.276z
		 M98.705,134.884c0.009-0.448-0.089-0.835-0.294-1.162c-0.263-0.42-0.663-0.63-1.204-0.63c-0.495,0-0.896,0.206-1.204,0.616
		c-0.252,0.327-0.401,0.719-0.448,1.176H98.705L98.705,134.884z"/>
</g>
<g>
	<path fill-opacity="0.5" d="M69.598,99.166c0,0.271-0.089,0.49-0.266,0.658c-0.178,0.168-0.406,0.252-0.686,0.252
		c-0.252,0-0.464-0.086-0.637-0.259c-0.173-0.172-0.259-0.39-0.259-0.651c0-0.261,0.088-0.476,0.266-0.644
		c0.178-0.168,0.397-0.252,0.658-0.252c0.261,0,0.48,0.084,0.658,0.252C69.509,98.69,69.598,98.905,69.598,99.166z M69.43,108
		h-1.512v-6.804h1.512V108z"/>
	<path fill-opacity="0.5" d="M77.48,101.308c0,0.868-0.256,1.563-0.768,2.086c-0.661,0.681-1.624,1.022-2.889,1.022
		c-0.372,0-0.661-0.023-0.865-0.07V108h-1.512v-9.31c0.719-0.13,1.54-0.196,2.464-0.196c1.194,0,2.095,0.257,2.702,0.77
		C77.19,99.768,77.48,100.449,77.48,101.308z M75.982,101.378c0-0.55-0.176-0.973-0.529-1.267c-0.354-0.294-0.846-0.441-1.478-0.441
		c-0.418,0-0.757,0.028-1.017,0.084v3.388c0.213,0.056,0.506,0.084,0.878,0.084c0.669,0,1.194-0.163,1.575-0.49
		C75.792,102.409,75.982,101.957,75.982,101.378z"/>
	<path fill-opacity="0.5" d="M84.635,104.542c0,1.045-0.299,1.904-0.896,2.576c-0.625,0.69-1.453,1.036-2.49,1.036
		c-0.999,0-1.794-0.331-2.387-0.994c-0.593-0.663-0.889-1.498-0.889-2.506c0-1.054,0.306-1.918,0.917-2.59
		c0.611-0.672,1.435-1.008,2.469-1.008c0.998,0,1.804,0.331,2.406,0.994C84.346,102.694,84.635,103.525,84.635,104.542z
		 M83.066,104.577c0-0.624-0.135-1.159-0.406-1.605c-0.316-0.54-0.77-0.81-1.357-0.81c-0.607,0-1.069,0.27-1.386,0.81
		c-0.271,0.447-0.406,0.991-0.406,1.633c0,0.624,0.135,1.159,0.406,1.605c0.326,0.54,0.784,0.81,1.372,0.81
		c0.579,0,1.031-0.274,1.357-0.824C82.926,105.741,83.066,105.201,83.066,104.577z"/>
	<path fill-opacity="0.5" d="M92.15,108h-1.344l-0.07-1.092h-0.041c-0.43,0.831-1.157,1.246-2.188,1.246
		c-0.818,0-1.503-0.322-2.044-0.966s-0.812-1.479-0.812-2.506c0-1.101,0.298-1.993,0.89-2.674c0.572-0.634,1.274-0.952,2.11-0.952
		c0.921,0,1.562,0.308,1.931,0.924v-3.906h1.513v8.092C92.096,106.829,92.113,107.44,92.15,108z M90.584,105.13v-1.134
		c0-0.196-0.016-0.354-0.043-0.476c-0.084-0.364-0.268-0.669-0.548-0.917c-0.281-0.247-0.618-0.371-1.013-0.371
		c-0.562,0-1.006,0.224-1.328,0.672c-0.323,0.448-0.484,1.022-0.484,1.722c0,0.672,0.154,1.218,0.464,1.638
		c0.328,0.448,0.769,0.672,1.321,0.672c0.496,0,0.895-0.187,1.193-0.56C90.438,106.031,90.584,105.615,90.584,105.13z"/>
</g>
<g>
	<path fill-opacity="0.17" d="M69.598,101.166c0,0.271-0.089,0.49-0.266,0.658c-0.178,0.168-0.406,0.252-0.686,0.252
		c-0.252,0-0.464-0.086-0.637-0.259c-0.173-0.172-0.259-0.39-0.259-0.651c0-0.261,0.088-0.476,0.266-0.644
		c0.178-0.168,0.397-0.252,0.658-0.252c0.261,0,0.48,0.084,0.658,0.252C69.509,100.69,69.598,100.905,69.598,101.166z M69.43,110
		h-1.512v-6.804h1.512V110z"/>
	<path fill-opacity="0.17" d="M77.48,103.308c0,0.868-0.256,1.563-0.768,2.086c-0.661,0.681-1.624,1.022-2.889,1.022
		c-0.372,0-0.661-0.023-0.865-0.07V110h-1.512v-9.31c0.719-0.13,1.54-0.196,2.464-0.196c1.194,0,2.095,0.257,2.702,0.77
		C77.19,101.768,77.48,102.449,77.48,103.308z M75.982,103.378c0-0.55-0.176-0.973-0.529-1.267
		c-0.354-0.294-0.846-0.441-1.478-0.441c-0.418,0-0.757,0.028-1.017,0.084v3.388c0.213,0.056,0.506,0.084,0.878,0.084
		c0.669,0,1.194-0.163,1.575-0.49C75.792,104.409,75.982,103.957,75.982,103.378z"/>
	<path fill-opacity="0.17" d="M84.635,106.542c0,1.045-0.299,1.904-0.896,2.576c-0.625,0.69-1.453,1.036-2.49,1.036
		c-0.999,0-1.794-0.331-2.387-0.994c-0.593-0.663-0.889-1.498-0.889-2.506c0-1.054,0.306-1.918,0.917-2.59
		c0.611-0.672,1.435-1.008,2.469-1.008c0.998,0,1.804,0.331,2.406,0.994C84.346,104.694,84.635,105.525,84.635,106.542z
		 M83.066,106.577c0-0.624-0.135-1.159-0.406-1.605c-0.316-0.54-0.77-0.81-1.357-0.81c-0.607,0-1.069,0.27-1.386,0.81
		c-0.271,0.447-0.406,0.991-0.406,1.633c0,0.624,0.135,1.159,0.406,1.605c0.326,0.54,0.784,0.81,1.372,0.81
		c0.579,0,1.031-0.274,1.357-0.824C82.926,107.741,83.066,107.201,83.066,106.577z"/>
	<path fill-opacity="0.17" d="M92.15,110h-1.344l-0.07-1.092h-0.041c-0.43,0.831-1.157,1.246-2.188,1.246
		c-0.818,0-1.503-0.322-2.044-0.966s-0.812-1.479-0.812-2.506c0-1.101,0.298-1.993,0.89-2.674c0.572-0.634,1.274-0.952,2.11-0.952
		c0.921,0,1.562,0.308,1.931,0.924v-3.906h1.513v8.092C92.096,108.829,92.113,109.44,92.15,110z M90.584,107.13v-1.134
		c0-0.196-0.016-0.354-0.043-0.476c-0.084-0.364-0.268-0.669-0.548-0.917c-0.281-0.247-0.618-0.371-1.013-0.371
		c-0.562,0-1.006,0.224-1.328,0.672c-0.323,0.448-0.484,1.022-0.484,1.722c0,0.672,0.154,1.218,0.464,1.638
		c0.328,0.448,0.769,0.672,1.321,0.672c0.496,0,0.895-0.187,1.193-0.56C90.438,108.031,90.584,107.615,90.584,107.13z"/>
</g>
<g>
	<path fill="#FFFFFF" d="M69.598,100.166c0,0.271-0.089,0.49-0.266,0.658c-0.178,0.168-0.406,0.252-0.686,0.252
		c-0.252,0-0.464-0.086-0.637-0.259c-0.173-0.172-0.259-0.39-0.259-0.651c0-0.261,0.088-0.476,0.266-0.644
		c0.178-0.168,0.397-0.252,0.658-0.252c0.261,0,0.48,0.084,0.658,0.252C69.509,99.69,69.598,99.905,69.598,100.166z M69.43,109
		h-1.512v-6.804h1.512V109z"/>
	<path fill="#FFFFFF" d="M77.48,102.308c0,0.868-0.256,1.563-0.768,2.086c-0.661,0.681-1.624,1.022-2.889,1.022
		c-0.372,0-0.661-0.023-0.865-0.07V109h-1.512v-9.31c0.719-0.13,1.54-0.196,2.464-0.196c1.194,0,2.095,0.257,2.702,0.77
		C77.191,100.768,77.48,101.449,77.48,102.308z M75.982,102.378c0-0.55-0.176-0.973-0.529-1.267
		c-0.354-0.294-0.846-0.441-1.478-0.441c-0.418,0-0.757,0.028-1.017,0.084v3.388c0.213,0.056,0.506,0.084,0.878,0.084
		c0.669,0,1.194-0.163,1.575-0.49C75.792,103.409,75.982,102.957,75.982,102.378z"/>
	<path fill="#FFFFFF" d="M84.635,105.542c0,1.045-0.299,1.904-0.896,2.576c-0.625,0.69-1.453,1.036-2.49,1.036
		c-0.999,0-1.794-0.331-2.387-0.994c-0.593-0.663-0.889-1.498-0.889-2.506c0-1.054,0.306-1.918,0.917-2.59
		c0.611-0.672,1.435-1.008,2.469-1.008c0.998,0,1.804,0.331,2.406,0.994C84.346,103.694,84.635,104.525,84.635,105.542z
		 M83.066,105.577c0-0.624-0.135-1.159-0.406-1.605c-0.316-0.54-0.77-0.81-1.357-0.81c-0.607,0-1.069,0.27-1.386,0.81
		c-0.271,0.447-0.406,0.991-0.406,1.633c0,0.624,0.135,1.159,0.406,1.605c0.326,0.54,0.784,0.81,1.372,0.81
		c0.579,0,1.031-0.274,1.357-0.824C82.926,106.741,83.066,106.201,83.066,105.577z"/>
	<path fill="#FFFFFF" d="M92.152,109h-1.344l-0.07-1.092h-0.043c-0.428,0.831-1.156,1.246-2.185,1.246
		c-0.819,0-1.505-0.322-2.046-0.966s-0.812-1.479-0.812-2.506c0-1.101,0.298-1.993,0.89-2.674c0.572-0.634,1.274-0.952,2.108-0.952
		c0.923,0,1.562,0.308,1.933,0.924v-3.906h1.515v8.092C92.098,107.829,92.115,108.44,92.152,109z M90.585,106.13v-1.134
		c0-0.196-0.015-0.354-0.043-0.476c-0.084-0.364-0.267-0.669-0.548-0.917c-0.281-0.247-0.618-0.371-1.012-0.371
		c-0.562,0-1.006,0.224-1.33,0.672c-0.322,0.448-0.483,1.022-0.483,1.722c0,0.672,0.154,1.218,0.464,1.638
		c0.328,0.448,0.77,0.672,1.321,0.672c0.496,0,0.896-0.187,1.194-0.56C90.439,107.031,90.585,106.615,90.585,106.13z"/>
</g>
<g>
	<path fill-opacity="0.17" d="M78.327,79.894h-1.47l-0.196-3.948c-0.093-1.782-0.135-3.108-0.126-3.976h-0.042
		c-0.299,1.111-0.667,2.301-1.106,3.57l-1.47,4.27H72.77l-1.344-4.2c-0.401-1.269-0.728-2.482-0.98-3.64h-0.028
		c-0.047,1.418-0.103,2.767-0.168,4.046l-0.224,3.878h-1.414l0.63-9.436h1.946l1.358,4.088c0.336,1.008,0.63,2.091,0.882,3.248
		h0.042c0.299-1.204,0.616-2.287,0.952-3.248l1.414-4.088h1.946L78.327,79.894z"/>
	<path fill-opacity="0.17" d="M85.215,79.894h-1.357l-0.108-0.784h-0.042c-0.471,0.625-1.129,0.938-1.988,0.938
		c-0.644,0-1.158-0.205-1.554-0.616c-0.354-0.373-0.532-0.835-0.532-1.386c0-0.831,0.348-1.465,1.042-1.904
		c0.695-0.438,1.677-0.653,2.937-0.644v-0.126c0-0.896-0.475-1.344-1.414-1.344c-0.672,0-1.268,0.168-1.777,0.504l-0.308-0.994
		c0.635-0.392,1.414-0.588,2.337-0.588c1.783,0,2.675,0.938,2.675,2.814v2.506C85.117,78.951,85.15,79.492,85.215,79.894z
		 M83.646,77.556v-1.05c-1.67-0.028-2.506,0.43-2.506,1.372c0,0.355,0.098,0.621,0.293,0.798c0.191,0.177,0.438,0.266,0.734,0.266
		c0.334,0,0.646-0.105,0.93-0.315c0.279-0.21,0.457-0.478,0.521-0.805C83.639,77.747,83.646,77.658,83.646,77.556z"/>
	<path fill-opacity="0.17" d="M91.822,73.271l-0.295,1.148c-0.383-0.187-0.82-0.28-1.314-0.28c-0.663,0-1.188,0.222-1.574,0.665
		c-0.389,0.443-0.582,1.006-0.582,1.687c0,0.719,0.203,1.288,0.609,1.708c0.404,0.42,0.921,0.63,1.547,0.63
		c0.467,0,0.924-0.093,1.372-0.28l0.21,1.134c-0.495,0.233-1.12,0.35-1.876,0.35c-1.036,0-1.862-0.315-2.479-0.945
		c-0.612-0.63-0.924-1.472-0.924-2.527s0.332-1.92,0.994-2.597c0.662-0.676,1.555-1.015,2.674-1.015
		C90.818,72.95,91.365,73.057,91.822,73.271z"/>
</g>
<g>
	<path fill-opacity="0.5" d="M78.327,77.894h-1.47l-0.196-3.948c-0.093-1.782-0.135-3.108-0.126-3.976h-0.042
		c-0.299,1.111-0.667,2.301-1.106,3.57l-1.47,4.27H72.77l-1.344-4.2c-0.401-1.269-0.728-2.482-0.98-3.64h-0.028
		c-0.047,1.418-0.103,2.767-0.168,4.046l-0.224,3.878h-1.414l0.63-9.436h1.946l1.358,4.088c0.336,1.008,0.63,2.091,0.882,3.248
		h0.042c0.299-1.204,0.616-2.287,0.952-3.248l1.414-4.088h1.946L78.327,77.894z"/>
	<path fill-opacity="0.5" d="M85.215,77.894h-1.357l-0.108-0.784h-0.042c-0.471,0.625-1.129,0.938-1.988,0.938
		c-0.644,0-1.158-0.205-1.554-0.616c-0.354-0.373-0.532-0.835-0.532-1.386c0-0.831,0.348-1.465,1.042-1.904
		c0.695-0.438,1.677-0.653,2.937-0.644v-0.126c0-0.896-0.475-1.344-1.414-1.344c-0.672,0-1.268,0.168-1.777,0.504l-0.308-0.994
		c0.635-0.392,1.414-0.588,2.337-0.588c1.783,0,2.675,0.938,2.675,2.814v2.506C85.117,76.951,85.15,77.492,85.215,77.894z
		 M83.646,75.556v-1.05c-1.67-0.028-2.506,0.43-2.506,1.372c0,0.355,0.098,0.621,0.293,0.798c0.191,0.177,0.438,0.266,0.734,0.266
		c0.334,0,0.646-0.105,0.93-0.315c0.279-0.21,0.457-0.478,0.521-0.805C83.639,75.747,83.646,75.658,83.646,75.556z"/>
	<path fill-opacity="0.5" d="M91.822,71.271l-0.295,1.148c-0.383-0.187-0.82-0.28-1.314-0.28c-0.663,0-1.188,0.222-1.574,0.665
		c-0.389,0.443-0.582,1.006-0.582,1.687c0,0.719,0.203,1.288,0.609,1.708c0.404,0.42,0.921,0.63,1.547,0.63
		c0.467,0,0.924-0.093,1.372-0.28l0.21,1.134c-0.495,0.233-1.12,0.35-1.876,0.35c-1.036,0-1.862-0.315-2.479-0.945
		c-0.612-0.63-0.924-1.472-0.924-2.527s0.332-1.92,0.994-2.597c0.662-0.676,1.555-1.015,2.674-1.015
		C90.818,70.95,91.365,71.057,91.822,71.271z"/>
</g>
<g>
	<path fill="#FFFFFF" d="M78.327,78.894h-1.47l-0.196-3.948c-0.093-1.782-0.135-3.108-0.126-3.976h-0.042
		c-0.299,1.111-0.667,2.301-1.106,3.57l-1.47,4.27H72.77l-1.344-4.2c-0.401-1.269-0.728-2.482-0.98-3.64h-0.028
		c-0.047,1.418-0.103,2.767-0.168,4.046l-0.224,3.878h-1.414l0.63-9.436h1.946l1.358,4.088c0.336,1.008,0.63,2.091,0.882,3.248
		h0.042c0.299-1.204,0.616-2.287,0.952-3.248l1.414-4.088h1.946L78.327,78.894z"/>
	<path fill="#FFFFFF" d="M85.215,78.894h-1.357l-0.108-0.784h-0.042c-0.471,0.625-1.129,0.938-1.988,0.938
		c-0.644,0-1.158-0.205-1.554-0.616c-0.354-0.373-0.532-0.835-0.532-1.386c0-0.831,0.348-1.465,1.042-1.904
		c0.695-0.438,1.677-0.653,2.937-0.644v-0.126c0-0.896-0.475-1.344-1.414-1.344c-0.672,0-1.268,0.168-1.777,0.504l-0.308-0.994
		c0.635-0.392,1.414-0.588,2.337-0.588c1.783,0,2.675,0.938,2.675,2.814v2.506C85.117,77.951,85.15,78.492,85.215,78.894z
		 M83.646,76.556v-1.05c-1.67-0.028-2.506,0.43-2.506,1.372c0,0.355,0.098,0.621,0.293,0.798c0.191,0.177,0.438,0.266,0.734,0.266
		c0.334,0,0.646-0.105,0.93-0.315c0.279-0.21,0.457-0.478,0.521-0.805C83.639,76.747,83.646,76.658,83.646,76.556z"/>
	<path fill="#FFFFFF" d="M91.822,72.271l-0.295,1.148c-0.383-0.187-0.82-0.28-1.314-0.28c-0.663,0-1.188,0.222-1.574,0.665
		c-0.389,0.443-0.582,1.006-0.582,1.687c0,0.719,0.203,1.288,0.609,1.708c0.404,0.42,0.921,0.63,1.547,0.63
		c0.467,0,0.924-0.093,1.372-0.28l0.21,1.134c-0.495,0.233-1.12,0.35-1.876,0.35c-1.036,0-1.862-0.315-2.479-0.945
		c-0.612-0.63-0.924-1.472-0.924-2.527s0.332-1.92,0.994-2.597c0.662-0.676,1.555-1.015,2.674-1.015
		C90.818,71.95,91.365,72.057,91.822,72.271z"/>
</g>
<g>
	<path fill-opacity="0.5" d="M70.513,45.194c0,0.803-0.279,1.456-0.838,1.96c-0.614,0.551-1.471,0.826-2.57,0.826
		c-1.015,0-1.83-0.196-2.444-0.588l0.35-1.26c0.663,0.392,1.391,0.588,2.184,0.588c0.569,0,1.012-0.128,1.33-0.385
		s0.476-0.6,0.476-1.029c0-0.382-0.131-0.705-0.392-0.966c-0.261-0.261-0.695-0.504-1.302-0.728
		c-1.652-0.616-2.478-1.517-2.478-2.702c0-0.774,0.292-1.409,0.875-1.904s1.355-0.742,2.317-0.742c0.859,0,1.573,0.149,2.142,0.448
		l-0.379,1.232c-0.534-0.289-1.138-0.434-1.812-0.434c-0.534,0-0.951,0.131-1.251,0.392c-0.253,0.233-0.379,0.518-0.379,0.854
		c0,0.374,0.145,0.681,0.434,0.924c0.252,0.224,0.709,0.467,1.372,0.728c0.812,0.327,1.409,0.709,1.792,1.148
		C70.322,43.995,70.513,44.541,70.513,45.194z"/>
	<path fill-opacity="0.5" d="M75.427,42.17h-1.666v3.304c0,0.84,0.294,1.26,0.882,1.26c0.271,0,0.495-0.023,0.672-0.07l0.042,1.148
		c-0.299,0.112-0.691,0.168-1.176,0.168c-0.597,0-1.064-0.182-1.4-0.546c-0.336-0.364-0.504-0.976-0.504-1.834v-3.43h-0.994v-1.134
		h0.994V39.79l1.484-0.448v1.694h1.666V42.17z"/>
	<path fill-opacity="0.5" d="M82.861,44.382c0,1.045-0.299,1.904-0.896,2.576c-0.625,0.69-1.456,1.036-2.492,1.036
		c-0.999,0-1.794-0.331-2.387-0.994c-0.593-0.663-0.889-1.498-0.889-2.506c0-1.054,0.306-1.918,0.917-2.59
		c0.611-0.672,1.435-1.008,2.471-1.008c0.999,0,1.802,0.331,2.407,0.994C82.572,42.534,82.861,43.365,82.861,44.382z M81.293,44.417
		c0-0.624-0.135-1.159-0.406-1.605c-0.316-0.54-0.771-0.81-1.358-0.81c-0.607,0-1.069,0.27-1.386,0.81
		c-0.271,0.447-0.406,0.991-0.406,1.633c0,0.624,0.135,1.159,0.406,1.605c0.326,0.54,0.784,0.81,1.372,0.81
		c0.579,0,1.032-0.274,1.358-0.824C81.152,45.581,81.293,45.041,81.293,44.417z"/>
	<path fill-opacity="0.5" d="M87.9,42.366c-0.148-0.028-0.311-0.042-0.479-0.042c-0.529,0-0.939,0.201-1.229,0.602
		c-0.252,0.355-0.379,0.803-0.379,1.344v3.57H84.3v-4.662c0-0.784-0.014-1.498-0.041-2.142h1.314l0.057,1.302h0.043
		c0.158-0.448,0.41-0.807,0.759-1.078c0.336-0.243,0.696-0.364,1.092-0.364c0.14,0,0.267,0.009,0.377,0.028V42.366L87.9,42.366z"/>
	<path fill-opacity="0.5" d="M94.564,44.116c0,0.271-0.021,0.5-0.059,0.686h-4.533c0.02,0.672,0.234,1.186,0.654,1.54
		c0.387,0.317,0.877,0.476,1.482,0.476c0.674,0,1.281-0.107,1.834-0.322l0.236,1.05c-0.645,0.28-1.402,0.42-2.283,0.42
		c-1.055,0-1.883-0.31-2.48-0.931c-0.604-0.621-0.898-1.454-0.898-2.499c0-1.026,0.275-1.88,0.84-2.562
		c0.588-0.728,1.381-1.092,2.379-1.092c0.979,0,1.723,0.364,2.227,1.092C94.365,42.553,94.564,43.267,94.564,44.116z M93.123,43.724
		c0.01-0.448-0.088-0.835-0.293-1.162c-0.262-0.42-0.664-0.63-1.205-0.63c-0.494,0-0.896,0.206-1.203,0.616
		c-0.252,0.327-0.402,0.719-0.449,1.176H93.123z"/>
</g>
<g>
	<path fill-opacity="0.17" d="M70.513,47.194c0,0.803-0.279,1.456-0.838,1.96c-0.614,0.551-1.471,0.826-2.57,0.826
		c-1.015,0-1.83-0.196-2.444-0.588l0.35-1.26c0.663,0.392,1.391,0.588,2.184,0.588c0.569,0,1.012-0.128,1.33-0.385
		s0.476-0.6,0.476-1.029c0-0.382-0.131-0.705-0.392-0.966c-0.261-0.261-0.695-0.504-1.302-0.728
		c-1.652-0.616-2.478-1.517-2.478-2.702c0-0.774,0.292-1.409,0.875-1.904s1.355-0.742,2.317-0.742c0.859,0,1.573,0.149,2.142,0.448
		l-0.379,1.232c-0.534-0.289-1.138-0.434-1.812-0.434c-0.534,0-0.951,0.131-1.251,0.392c-0.253,0.233-0.379,0.518-0.379,0.854
		c0,0.374,0.145,0.681,0.434,0.924c0.252,0.224,0.709,0.467,1.372,0.728c0.812,0.327,1.409,0.709,1.792,1.148
		C70.322,45.995,70.513,46.541,70.513,47.194z"/>
	<path fill-opacity="0.17" d="M75.427,44.17h-1.666v3.304c0,0.84,0.294,1.26,0.882,1.26c0.271,0,0.495-0.023,0.672-0.07l0.042,1.148
		c-0.299,0.112-0.691,0.168-1.176,0.168c-0.597,0-1.064-0.182-1.4-0.546c-0.336-0.364-0.504-0.976-0.504-1.834v-3.43h-0.994v-1.134
		h0.994V41.79l1.484-0.448v1.694h1.666V44.17z"/>
	<path fill-opacity="0.17" d="M82.861,46.382c0,1.045-0.299,1.904-0.896,2.576c-0.625,0.69-1.456,1.036-2.492,1.036
		c-0.999,0-1.794-0.331-2.387-0.994c-0.593-0.663-0.889-1.498-0.889-2.506c0-1.054,0.306-1.918,0.917-2.59
		c0.611-0.672,1.435-1.008,2.471-1.008c0.999,0,1.802,0.331,2.407,0.994C82.572,44.534,82.861,45.365,82.861,46.382z M81.293,46.417
		c0-0.624-0.135-1.159-0.406-1.605c-0.316-0.54-0.771-0.81-1.358-0.81c-0.607,0-1.069,0.27-1.386,0.81
		c-0.271,0.447-0.406,0.991-0.406,1.633c0,0.624,0.135,1.159,0.406,1.605c0.326,0.54,0.784,0.81,1.372,0.81
		c0.579,0,1.032-0.274,1.358-0.824C81.152,47.581,81.293,47.041,81.293,46.417z"/>
	<path fill-opacity="0.17" d="M87.9,44.366c-0.148-0.028-0.311-0.042-0.479-0.042c-0.529,0-0.939,0.201-1.229,0.602
		c-0.252,0.355-0.379,0.803-0.379,1.344v3.57H84.3v-4.662c0-0.784-0.014-1.498-0.041-2.142h1.314l0.057,1.302h0.043
		c0.158-0.448,0.41-0.807,0.759-1.078c0.336-0.243,0.696-0.364,1.092-0.364c0.14,0,0.267,0.009,0.377,0.028V44.366L87.9,44.366z"/>
	<path fill-opacity="0.17" d="M94.564,46.116c0,0.271-0.021,0.5-0.059,0.686h-4.533c0.02,0.672,0.234,1.186,0.654,1.54
		c0.387,0.317,0.877,0.476,1.482,0.476c0.674,0,1.281-0.107,1.834-0.322l0.236,1.05c-0.645,0.28-1.402,0.42-2.283,0.42
		c-1.055,0-1.883-0.31-2.48-0.931c-0.604-0.621-0.898-1.454-0.898-2.499c0-1.026,0.275-1.88,0.84-2.562
		c0.588-0.728,1.381-1.092,2.379-1.092c0.979,0,1.723,0.364,2.227,1.092C94.365,44.553,94.564,45.267,94.564,46.116z M93.123,45.724
		c0.01-0.448-0.088-0.835-0.293-1.162c-0.262-0.42-0.664-0.63-1.205-0.63c-0.494,0-0.896,0.206-1.203,0.616
		c-0.252,0.327-0.402,0.719-0.449,1.176H93.123z"/>
</g>
<g>
	<path fill="#FFFFFF" d="M70.513,46.194c0,0.803-0.279,1.456-0.838,1.96c-0.614,0.551-1.471,0.826-2.57,0.826
		c-1.015,0-1.83-0.196-2.444-0.588l0.35-1.26c0.663,0.392,1.391,0.588,2.184,0.588c0.569,0,1.012-0.128,1.33-0.385
		s0.476-0.6,0.476-1.029c0-0.382-0.131-0.705-0.392-0.966c-0.261-0.261-0.695-0.504-1.302-0.728
		c-1.652-0.616-2.478-1.517-2.478-2.702c0-0.774,0.292-1.409,0.875-1.904s1.355-0.742,2.317-0.742c0.859,0,1.573,0.149,2.142,0.448
		l-0.379,1.232c-0.534-0.289-1.138-0.434-1.812-0.434c-0.534,0-0.951,0.131-1.251,0.392c-0.253,0.233-0.379,0.518-0.379,0.854
		c0,0.374,0.145,0.681,0.434,0.924c0.252,0.224,0.709,0.467,1.372,0.728c0.812,0.327,1.409,0.709,1.792,1.148
		C70.322,44.995,70.513,45.541,70.513,46.194z"/>
	<path fill="#FFFFFF" d="M75.427,43.17h-1.666v3.304c0,0.84,0.294,1.26,0.882,1.26c0.271,0,0.495-0.023,0.672-0.07l0.042,1.148
		c-0.299,0.112-0.691,0.168-1.176,0.168c-0.597,0-1.064-0.182-1.4-0.546c-0.336-0.364-0.504-0.976-0.504-1.834v-3.43h-0.994v-1.134
		h0.994V40.79l1.484-0.448v1.694h1.666V43.17z"/>
	<path fill="#FFFFFF" d="M82.861,45.382c0,1.045-0.299,1.904-0.896,2.576c-0.625,0.69-1.457,1.036-2.493,1.036
		c-0.999,0-1.794-0.331-2.387-0.994c-0.593-0.663-0.889-1.498-0.889-2.506c0-1.054,0.306-1.918,0.917-2.59
		c0.611-0.672,1.435-1.008,2.471-1.008c0.999,0,1.803,0.331,2.408,0.994C82.572,43.534,82.861,44.365,82.861,45.382z M81.293,45.417
		c0-0.624-0.135-1.159-0.406-1.605c-0.318-0.54-0.771-0.81-1.359-0.81c-0.607,0-1.069,0.27-1.386,0.81
		c-0.271,0.447-0.406,0.991-0.406,1.633c0,0.624,0.135,1.159,0.406,1.605c0.326,0.54,0.784,0.81,1.372,0.81
		c0.579,0,1.031-0.274,1.358-0.824C81.152,46.581,81.293,46.041,81.293,45.417z"/>
	<path fill="#FFFFFF" d="M87.9,43.366c-0.148-0.028-0.311-0.042-0.479-0.042c-0.529,0-0.939,0.201-1.229,0.602
		c-0.252,0.355-0.379,0.803-0.379,1.344v3.57H84.3v-4.662c0-0.784-0.014-1.498-0.041-2.142h1.314l0.057,1.302h0.043
		c0.158-0.448,0.41-0.807,0.759-1.078c0.336-0.243,0.696-0.364,1.092-0.364c0.14,0,0.267,0.009,0.377,0.028V43.366L87.9,43.366z"/>
	<path fill="#FFFFFF" d="M94.564,45.116c0,0.271-0.021,0.5-0.059,0.686h-4.533c0.02,0.672,0.234,1.186,0.654,1.54
		c0.387,0.317,0.877,0.476,1.482,0.476c0.674,0,1.281-0.107,1.834-0.322l0.236,1.05c-0.645,0.28-1.402,0.42-2.283,0.42
		c-1.055,0-1.883-0.31-2.48-0.931c-0.604-0.621-0.898-1.454-0.898-2.499c0-1.026,0.275-1.88,0.84-2.562
		c0.588-0.728,1.381-1.092,2.379-1.092c0.979,0,1.723,0.364,2.227,1.092C94.365,43.553,94.564,44.267,94.564,45.116z M93.123,44.724
		c0.01-0.448-0.088-0.835-0.293-1.162c-0.262-0.42-0.664-0.63-1.205-0.63c-0.494,0-0.896,0.206-1.203,0.616
		c-0.252,0.327-0.402,0.719-0.449,1.176H93.123z"/>
</g>
<g>
	<path fill-opacity="0.5" d="M85.559,14.044c-0.023-2.604,2.125-3.856,2.226-3.916c-1.21-1.771-3.095-2.014-3.769-2.042
		c-1.602-0.162-3.125,0.944-3.938,0.944c-0.813,0-2.067-0.92-3.397-0.896c-1.748,0.024-3.357,1.016-4.257,2.579
		c-1.815,3.149-0.464,7.814,1.304,10.369c0.864,1.25,1.895,2.656,3.249,2.605c1.305-0.051,1.797-0.843,3.374-0.843
		c1.574,0,2.018,0.843,3.396,0.817c1.401-0.025,2.292-1.275,3.149-2.529c0.992-1.45,1.397-2.854,1.424-2.927
		C88.289,18.195,85.586,17.158,85.559,14.044z"/>
	<path fill-opacity="0.5" d="M82.967,6.396c0.719-0.871,1.204-2.082,1.07-3.287c-1.035,0.042-2.288,0.69-3.032,1.56
		c-0.666,0.77-1.249,2.003-1.091,3.184C81.068,7.942,82.249,7.266,82.967,6.396z"/>
</g>
<g>
	
		<linearGradient id="SVGID_1_" gradientUnits="userSpaceOnUse" x1="315.9404" y1="-171.0698" x2="315.9404" y2="-186.6885" gradientTransform="matrix(1 0 0 -1 -236 -162)">
		<stop  offset="0" style="stop-color:#F3F4F5"/>
		<stop  offset="0.3145" style="stop-color:#E6E7E8"/>
		<stop  offset="0.9005" style="stop-color:#C5C4C4"/>
		<stop  offset="0.9939" style="stop-color:#BFBEBE"/>
	</linearGradient>
	<path fill="url(#SVGID_1_)" d="M85.559,15.044c-0.023-2.604,2.125-3.856,2.226-3.916c-1.21-1.771-3.095-2.014-3.769-2.042
		c-1.602-0.162-3.125,0.944-3.938,0.944c-0.813,0-2.067-0.92-3.397-0.896c-1.748,0.024-3.357,1.016-4.257,2.579
		c-1.815,3.149-0.464,7.814,1.304,10.369c0.864,1.25,1.895,2.656,3.249,2.605c1.305-0.051,1.797-0.843,3.374-0.843
		c1.574,0,2.018,0.843,3.396,0.817c1.401-0.025,2.292-1.275,3.149-2.529c0.992-1.45,1.397-2.854,1.424-2.927
		C88.289,19.195,85.586,18.158,85.559,15.044z"/>
	<path fill="#F6F7F7" d="M82.967,7.396c0.719-0.871,1.204-2.082,1.07-3.287c-1.035,0.042-2.288,0.69-3.032,1.56
		c-0.666,0.77-1.249,2.003-1.091,3.184C81.068,8.942,82.249,8.266,82.967,7.396z"/>
	<path fill="#BFBEBE" d="M76.975,24.689c1.305-0.051,1.797-0.843,3.374-0.843c1.574,0,2.018,0.843,3.396,0.817
		c1.401-0.025,2.292-1.275,3.149-2.529c0.435-0.634,0.758-1.26,0.982-1.771c-0.758-0.012-1.602-0.021-2.277-0.021
		c-1.654,0-2.309-0.326-5.421-0.326c-3.115,0-3.692,0.418-5.229,0.533c-0.705,0.054-1.466,0.058-2.084,0.046
		c0.266,0.546,0.557,1.048,0.862,1.487C74.591,23.334,75.622,24.74,76.975,24.689z"/>
</g>
</svg>
